<svg xmlns="http://www.w3.org/2000/svg" xmlns:xlink="http://www.w3.org/1999/xlink" viewBox="0 0 465 423.45">
  <defs>
    <style>

      @keyframes float-vertical {
        0% {
          transform: translate3d(0, 0, 0)
        }

        50% {
          transform: translate3d(0, 20px, 0)
        }

        100% {
          transform: translate3d(0, 0, 0)
        }
      }
      @keyframes float-horizontal {
        0% {
          transform: translate3d(0, 0, 0)
        }

        50% {
          transform: translate3d(15px, 0, 0)
        }

        100% {
          transform: translate3d(0, 0, 0)
        }
      }

      .bounce {
        animation: float-vertical 4s ease-in-out infinite;
      }
      .wobble, .wobble-b {
        animation: float-horizontal 4s ease-in-out infinite;
      }
      .wobble-b {
        animation-delay: 1200ms;
      }
      
      .cls-1 {
        isolation: isolate;
      }

      .cls-2 {
        fill: #2d333f;
      }

      .cls-21,
      .cls-23,
      .cls-24,
      .cls-3,
      .cls-4 {
        fill: #1a1d25;
      }

      .cls-3 {
        opacity: 0.34;
      }

      .cls-12,
      .cls-23,
      .cls-24,
      .cls-29,
      .cls-3,
      .cls-4 {
        mix-blend-mode: multiply;
      }

      .cls-4 {
        opacity: 0.43;
      }

      .cls-12,
      .cls-5 {
        fill: #a6bfe2;
      }

      .cls-6 {
        fill: url(#linear-gradient);
      }

      .cls-7 {
        fill: #dfe9f2;
      }

      .cls-8 {
        fill: #cadbe8;
      }

      .cls-9 {
        fill: #83a2c6;
      }

      .cls-10,
      .cls-28 {
        fill: #fff;
      }

      .cls-11 {
        fill: #ff3aec;
      }

      .cls-12,
      .cls-23 {
        opacity: 0.4;
      }

      .cls-13 {
        fill: #ea21e1;
      }

      .cls-14 {
        fill: #d30dd3;
      }

      .cls-15 {
        fill: #ffea06;
      }

      .cls-16 {
        fill: none;
        stroke: #f29525;
        stroke-miterlimit: 10;
        stroke-width: 0.85px;
      }

      .cls-17 {
        fill: #8540ff;
      }

      .cls-18 {
        fill: #6f35ed;
      }

      .cls-19 {
        fill: #5221d8;
      }

      .cls-20 {
        fill: #feb9a7;
      }

      .cls-22 {
        fill: url(#linear-gradient-2);
      }

      .cls-24 {
        opacity: 0.6;
      }

      .cls-25 {
        fill: url(#linear-gradient-3);
      }

      .cls-26 {
        fill: url(#linear-gradient-4);
      }

      .cls-27 {
        fill: url(#linear-gradient-5);
      }

      .cls-28 {
        opacity: 0.35;
        mix-blend-mode: soft-light;
      }

      .cls-29 {
        fill: #5827e0;
        opacity: 0.2;
      }

      .cls-30 {
        fill: url(#linear-gradient-6);
      }

      .cls-31 {
        fill: url(#linear-gradient-7);
      }

      .cls-32 {
        fill: #fe8d7e;
      }

      .cls-33 {
        fill: url(#linear-gradient-8);
      }

      .cls-34 {
        fill: #3b16c1;
      }
    </style>
    <linearGradient id="linear-gradient" x1="247.97" y1="-24.78" x2="170.59" y2="282.77" gradientUnits="userSpaceOnUse">
      <stop offset="0" stop-color="#fff" />
      <stop offset="1" stop-color="#dfe9f2" />
    </linearGradient>
    <linearGradient id="linear-gradient-2" x1="131.96" y1="326.23" x2="152.32" y2="326.23" gradientUnits="userSpaceOnUse">
      <stop offset="0" stop-color="#fe8d7e" />
      <stop offset="1" stop-color="#f26f75" />
    </linearGradient>
    <linearGradient id="linear-gradient-3" x1="14.98" y1="347.05" x2="36.78" y2="347.05" xlink:href="#linear-gradient-2" />
    <linearGradient id="linear-gradient-4" x1="160.13" y1="112.22" x2="180.57" y2="112.22" xlink:href="#linear-gradient-2" />
    <linearGradient id="linear-gradient-5" x1="85.98" y1="116.28" x2="104.96" y2="116.28" xlink:href="#linear-gradient-2" />
    <linearGradient id="linear-gradient-6" x1="85.33" y1="61.48" x2="108.2" y2="61.48" xlink:href="#linear-gradient-2" />
    <linearGradient id="linear-gradient-7" x1="-9301.41" y1="-8064.86" x2="-9304.55" y2="-8049.03" gradientTransform="matrix(-0.98, 0.2, 0.2, 0.98, -7377.35, 9817.05)" xlink:href="#linear-gradient-2" />
    <linearGradient id="linear-gradient-8" x1="108.69" y1="42.07" x2="118.23" y2="42.07" gradientTransform="translate(8.91 -22.83) rotate(14.71)" xlink:href="#linear-gradient-2" />
  </defs>
  <g class="cls-1">
    <g id="Layer_2" data-name="Layer 2">
      <g id="Layer_1-2" data-name="Layer 1">
        <path class="cls-2" d="M44.21,154.05C88,82.43,186.82-7.59,324.13,37.75s99.95,152.61,75.36,202.1-81.95,56.31-106.89,50.2-59.25-18.07-88.44,5.27C44,423.39-24.69,266.82,44.21,154.05Z" />
        <path class="cls-2" d="M289.47,362.58a378.21,378.21,0,0,1-43.7,5.57q-4.43.33-8.69.7c-32.11,2.68-57.33,5.85-61-11.63C174,347,192.75,322.57,222,311.81a86.19,86.19,0,0,1,18.06-4.5,125.09,125.09,0,0,1,13.59-1.06c35.57-.86,72.11,12.55,77.2,30.6C334.46,349.69,314.08,357.73,289.47,362.58Z" />
        <path class="cls-3" d="M391.81,252.58a89,89,0,0,1-26.52,24.3C339.4,292.49,309,294.06,292.6,290.05c-14.4-3.53-31.9-9-49.75-8.51-13.08.34-26.35,3.9-38.7,13.78C44,423.38-24.69,266.82,44.21,154c26.63-43.6,73.7-94,137.43-116.56a206.56,206.56,0,0,1,73.69-11.92C261,82.19,285.67,210.71,391.81,252.58Z" />
        <path class="cls-4" d="M242.85,281.54c-13.08.34-26.35,3.9-38.7,13.78C44,423.38-24.69,266.82,44.21,154c26.63-43.6,73.7-94,137.43-116.56C179.66,93.76,184.72,202.2,242.85,281.54Z" />
        <path class="cls-4" d="M152.53,328.74C30,387.91-16.75,253.83,44.21,154q3.43-5.62,7.32-11.38C55.33,199.7,76.15,277.16,152.53,328.74Z" />
        <path class="cls-5" d="M319.45,26.4,276.18,187.87l-16,59.59c-2.57,9.6-12.44,17.38-22,17.38H128.92c-9.59,0-15.28-7.78-12.72-17.38L174,31.64l1.4-5.24C178,16.8,187.87,9,197.47,9H306.73C316.32,9,322,16.8,319.45,26.4Z" />
        <path class="cls-6" d="M308.9,26.4l-41.81,156-17.42,65c-2.57,9.6-12.44,17.38-22,17.38H118.39c-9.61,0-15.3-7.78-12.72-17.38L164.9,26.4a21.35,21.35,0,0,1,2.23-5.27h0c4.11-7,12-12.09,19.79-12.09H296.18C305.77,9,311.47,16.8,308.9,26.4Z" />
        <path class="cls-7" d="M297,30.38,286.8,68.29H164.56l10.15-37.91A10.31,10.31,0,0,1,184.05,23H291.56C295.63,23,298,26.32,297,30.38Z" />
        <path class="cls-8" d="M286.8,68.29l-44.7,166.8a10.31,10.31,0,0,1-9.33,7.36H125.26c-4.07,0-6.49-3.3-5.4-7.36l44.7-166.8Z" />
        <path class="cls-9" d="M179,259.6h-9.07c-3.28,0-5.23-2.67-4.35-6h0a8.31,8.31,0,0,1,7.54-6h9.07c3.28,0,5.23,2.66,4.35,6h0A8.33,8.33,0,0,1,179,259.6Z" />
        <polygon class="cls-10" points="264.35 34.62 205.04 34.62 199.7 23.02 275.91 23.02 264.35 34.62" />
        <ellipse class="cls-5" cx="189.47" cy="50.88" rx="8.66" ry="6.63" transform="translate(13.38 137.35) rotate(-41.18)" />
        <polygon class="cls-7" points="206.8 129 161.31 129 173.5 83.51 218.99 83.51 206.8 129" />
        <polygon class="cls-7" points="264.3 103.65 222.04 103.65 220.91 107.88 263.17 107.88 264.3 103.65" />
        <polygon class="cls-7" points="261.47 114.21 219.21 114.21 218.08 118.44 260.34 118.44 261.47 114.21" />
        <polygon class="cls-7" points="266.3 96.19 224.04 96.19 227.44 83.51 269.69 83.51 266.3 96.19" />
        <polygon class="cls-7" points="241.74 124.78 216.38 124.78 215.25 129 240.6 129 241.74 124.78" />
        <polygon class="cls-7" points="191.44 186.33 145.95 186.33 158.14 140.84 203.63 140.84 191.44 186.33" />
        <polygon class="cls-7" points="248.94 160.97 206.68 160.97 205.55 165.2 247.81 165.2 248.94 160.97" />
        <polygon class="cls-7" points="246.11 171.54 203.85 171.54 202.72 175.76 244.98 175.76 246.11 171.54" />
        <polygon class="cls-7" points="250.94 153.51 208.68 153.51 212.08 140.84 254.34 140.84 250.94 153.51" />
        <polygon class="cls-7" points="226.38 182.1 201.02 182.1 199.89 186.33 225.24 186.33 226.38 182.1" />
        <path class="cls-11" d="M227.06,225.78H139.89a3.34,3.34,0,0,1-3.3-4.51l4.07-15.22a6.34,6.34,0,0,1,5.73-4.52h87.16a3.35,3.35,0,0,1,3.31,4.52l-4.08,15.22A6.31,6.31,0,0,1,227.06,225.78Z" />
        <path class="cls-12" d="M276.18,187.87,269,214.66l-8.79,32.8c-2.57,9.6-12.44,17.38-22,17.38H118.39c-9.61,0-15.3-7.78-12.72-17.38L143.52,106.2,164.9,26.4a21.35,21.35,0,0,1,2.23-5.27c2.13,3,4.48,6.47,6.91,10.51C185.11,50,202.91,61.34,199.89,120c-3.2,62.19,38.49,47.08,67.2,62.43A99.23,99.23,0,0,1,276.18,187.87Z" />
        <path class="cls-12" d="M269,214.66l-8.79,32.8c-2.57,9.6-12.44,17.38-22,17.38H118.39c-9.61,0-15.3-7.78-12.72-17.38l2.42-9.06,16.61-62,11.66-43.51,7.16-26.72c13,4.6,24.38,16.2,21.79,43.52-5.57,58.84,38.64,58.84,80.8,57.24C256.76,206.55,264.05,209.71,269,214.66Z" />
        <g class="wobble">
        <path class="cls-11" d="M449.7,68.59l-15.28,57-4.19,15.64a10.8,10.8,0,0,1-1.64,3.42,11.69,11.69,0,0,1-9.08,5H306.78c-4.66,0-7.44-3.78-6.19-8.45l17.73-66.19,1.75-6.49c1.25-4.66,6.05-8.45,10.71-8.45H443.51C448.19,60.14,451,63.93,449.7,68.59Z" />
        <path class="cls-13" d="M434.42,125.63l-4.19,15.64c-1.25,4.67-6.05,8.45-10.72,8.45H306.78c-4.66,0-7.44-3.78-6.19-8.45l19.48-72.68c1.25-4.66,6.05-8.45,10.71-8.45h11.09c.24,22.7,7.76,52.91,46.4,51C409.61,110.11,424.32,116.65,434.42,125.63Z" />
        <path class="cls-14" d="M428.59,144.69a11.69,11.69,0,0,1-9.08,5H306.78c-4.66,0-7.44-3.78-6.19-8.45l17.73-66.19c5.26,22.72,18.43,53.05,51.18,51.81C406.88,125.48,422.87,134.61,428.59,144.69Z" />
        <path class="cls-15" d="M352.25,95.68H327.07A1.25,1.25,0,0,1,325.83,94l4.53-16.9a2.37,2.37,0,0,1,2.14-1.69h25.19a1.25,1.25,0,0,1,1.23,1.69L354.39,94A2.36,2.36,0,0,1,352.25,95.68Z" />
        <polyline class="cls-16" points="345.09 75.4 343.19 82.51 357.47 82.51" />
        <polyline class="cls-16" points="339.66 95.68 341.56 88.57 355.85 88.57" />
        <line class="cls-16" x1="338.17" y1="75.4" x2="332.73" y2="95.68" />
        <polygon class="cls-11" points="331.49 134.91 314.87 134.91 316.2 129.92 332.82 129.92 331.49 134.91" />
        <polygon class="cls-11" points="351.74 134.91 335.12 134.91 336.45 129.92 353.08 129.92 351.74 134.91" />
        <polygon class="cls-11" points="372 134.91 355.37 134.91 356.71 129.92 373.33 129.92 372 134.91" />
        <polygon class="cls-11" points="392.25 134.91 375.63 134.91 376.96 129.92 393.58 129.92 392.25 134.91" />
        <polygon class="cls-11" points="423.94 133.22 407.31 133.22 407.74 131.61 424.37 131.61 423.94 133.22" />
        </g>
        <g class="wobble-b">
          <path class="cls-17" d="M361.41,166.63l-13.59,50.7a10.9,10.9,0,0,1-.9,2.25,11.82,11.82,0,0,1-9.82,6.21H286.4c-4.67,0-7.44-3.79-6.19-8.46l9.13-34.06,4.46-16.64c1.25-4.67,6.05-8.45,10.72-8.45h50.7C359.89,158.18,362.66,162,361.41,166.63Z" />
          <path class="cls-18" d="M346.92,219.58a11.82,11.82,0,0,1-9.82,6.21H286.4c-4.67,0-7.44-3.79-6.19-8.46l13.59-50.7c1.25-4.67,6.05-8.45,10.72-8.45h3.18C306.31,174.77,309.26,205.71,346.92,219.58Z" />
          <path class="cls-10" d="M335.09,183.21c1,1.36.4,3.56-1.32,4.91l-16,12.63c-1.72,1.36-3.92,1.36-4.91,0l-4.62-6.31c-1-1.36-.41-3.56,1.31-4.91a4.48,4.48,0,0,1,2.73-1,2.64,2.64,0,0,1,2.18,1l2.82,3.86,12.9-10.18C331.89,181.85,334.09,181.85,335.09,183.21Z" />
          <path class="cls-19" d="M323.18,225.79H286.4c-4.67,0-7.44-3.79-6.19-8.46l9.13-34.06C293.22,197.18,302.33,214,323.18,225.79Z" />
        </g>
        <g class="bounce">
        <polygon class="cls-20" points="36.86 349.5 35.43 352.28 25.23 372.14 9.15 364.53 14.98 351.46 19.28 341.81 36.78 349.47 36.86 349.5" />
        <path class="cls-17" d="M45.3,403.43l0,0L0,372.14l5.13-7.39,0-.07A36.05,36.05,0,0,1,11,358.41c.82-.68,1.34-1,1.34-1s.76,5.17,1.86,5.64,8.86,4.1,11.34,3.18,4.15-8,6.29-6.93c4.9,2.56,1.55,11.46,2.75,14.08s4.71,6.4,12.07,16A16,16,0,0,1,49,393.43C51.43,400,45.77,403.18,45.3,403.43Z" />
        <polygon class="cls-20" points="152.32 324.72 151.81 327.07 146.95 349.6 129.45 346.39 131.96 330.63 133.35 321.83 152.32 324.72" />
        <path class="cls-17" d="M174.4,374.65l-11.46-4.39L123.12,355l2.11-6.25.41-1.2c2.12-7.42,5-8.92,5-8.92s2.07,4.81,3.26,5,9.61,1.66,11.77.13,1.93-8.84,4.29-8.32c5.39,1.2,4.46,10.67,6.3,12.88s6.2,5,15.8,12.35S174.4,374.65,174.4,374.65Z" />
        <path class="cls-21" d="M165.3,245.74c-5.75,4.27-15.66,6-31.14,1.5-.25-.06-.5-.14-.75-.22-41-12.23-49.63-21.4-63-27.36-27.12-12.06-11.24-55.13,23.37-40.52l4.55,2.44h0c14.61,7.86,59.83,32.36,68.46,39.08a13.51,13.51,0,0,1,4.42,7A16.67,16.67,0,0,1,165.3,245.74Z" />
        <polygon class="cls-22" points="152.32 324.72 151.81 327.07 131.96 330.63 133.35 321.83 152.32 324.72" />
        <path class="cls-21" d="M171.59,242.36l-17.74,85.08-5.48-1-16.07-2.86s.72-51,1.86-76.37c.22-5.06.46-9.11.72-11.53,1.07-10.05,6.54-16,13-18.26,8.86-3.1,19.56.69,23.28,10.21C172.72,231.61,173.06,236.53,171.59,242.36Z" />
        <path class="cls-23" d="M136.12,324.33l-4-.72s.72-51,1.86-76.37l-.75-.22c-34.4-10.27-46-18.39-56.81-24.25-1.35-.74-2.69-1.43-4-2.1l3.31-13.29s22.76,23.33,55.73,24.75a14.28,14.28,0,0,1,3.76.64c6.37,2,9.72,8.35,11.13,16.91C150.1,273.11,139.39,313,136.12,324.33Z" />
        <path class="cls-24" d="M132.08,323.61s.72-51,1.86-76.37l-.75-.22c-34.4-10.27-46-18.39-56.81-24.25L78.25,220s37.79,22,56.94,22.57S132.08,323.61,132.08,323.61Z" />
        <path class="cls-21" d="M81.13,267.41A12,12,0,0,1,79.25,272a17.31,17.31,0,0,1-13.74,7.52,16.78,16.78,0,0,1-11.72-4.6c-3.67-3.3-7-8.56-9.55-16.4a78.65,78.65,0,0,1-2.07-8.07s-4.53-53.86-5.59-68.5c-.57-7.73,2.13-13.87,6.47-18.06a22,22,0,0,1,4.63-3.4c13.11-7.28,33.4-1.52,35.64,23C83.32,183.44,83.36,254.52,81.13,267.41Z" />
        <polygon class="cls-25" points="36.78 349.47 35.43 352.28 14.98 351.46 19.28 341.81 36.78 349.47" />
        <path class="cls-21" d="M79.25,272a29.72,29.72,0,0,1-2,4.06L37,353.05l-11.6-5.63-5-2.43-3.06-1.49s21-70.25,26.43-83.88c.16-.39.32-.77.48-1.13a24.23,24.23,0,0,1,5.24-7.65,18.52,18.52,0,0,1,11-5.17C73,244.38,85.66,255.9,79.25,272Z" />
        <path class="cls-17" d="M121.1,113.16c-3.39,13.22-9.37,22.71-12.9,39.47,0,.08,0,.16,0,.24a153.89,153.89,0,0,0-3,32.06c-26.31-8.49-45.73-4.87-68.67-14.08,0,0,2.32-6.33,5.16-14.21l3.05-8.45c3.72-10.38,7.32-20.6,7.43-21.56a64.64,64.64,0,0,0,.19-9.08c-.08-2.3-.23-4.76-.41-7.3-.41-5.87-1-12.17-1.46-17.86-.67-8.44-1-15.52.1-17.85,5-10.54,7.7-10.55,27.29-12.3s34.59,9.37,43.41,15.55S124.49,99.93,121.1,113.16Z" />
        <path class="cls-17" d="M147.89,151.74c-4.62,6.86-14.61,7.29-21.12-5.67-6-11.91-11.08-24.46-13.87-34.5-1.72-6.18-2.57-11.41-2.22-15,.87-9.07,13.62-15.41,13.62-15.41s12.31,25.28,19.79,42.19c2,4.61,3.71,8.58,4.69,11.27.15.4.27.78.39,1.13C151.33,142.27,150.42,148,147.89,151.74Z" />
        <polygon class="cls-20" points="183.63 108.22 180.57 111.99 172.26 122.22 149.27 150.56 137.96 134.66 160.51 109.28 166.58 102.42 171.75 96.6 183.63 108.22" />
        <polygon class="cls-26" points="180.57 111.99 172.26 122.22 164.81 121.2 160.51 109.28 160.13 108.25 166.58 102.42 166.82 102.21 180.57 111.99" />
        <polygon class="cls-12" points="146.44 127.54 146.44 153.51 124.7 176.43 136.36 132.91 146.44 127.54" />
        <path class="cls-17" d="M181.12,117.25s-23.83,25.48-31.85,33.31a12.68,12.68,0,0,1-1.38,1.18c-10,7.31-26-3.37-14.46-17.19.5-.6,1-1.2,1.66-1.81l9-9.36L165.64,101Z" />
        <path class="cls-20" d="M171.75,96.6s4.13-8.15,7.19-10.24,18.25-11.68,19.48-11.81,1.26,3.45-.42,5.12-7.66,6.51-7.66,6.51,2.31,1,2.2,2.24l-.1,1.26s3.18,2.34,3.14,3.49a4.72,4.72,0,0,1-.65,2.09s1.92,3.42,1.53,4.39-12.19,9.2-12.83,8.57C182.61,107.73,171.75,96.6,171.75,96.6Z" />
        <path class="cls-20" d="M178.17,97.16s4.34-1.84,4.42-4.36a12,12,0,0,0-.42-3.92s3.43-7.54,3.88-8.79-1-3.42-2.09-2.91-7.39,8.11-8.21,9.76-2.91,7.64-2.91,7.64Z" />
        <path class="cls-20" d="M182.19,95.6c1.08,1.54,4,.31,4,.31s-3,3.74-.88,4.68c1.44.65,4-.7,4-.65-.12.8-3.22,4.6-1.33,4.88a1.9,1.9,0,0,0,1.15-.27c2.85-1.51,6.34-3.63,7.12-4.55,0,0,0,0,0,0,.18-.2.28-.33.28-.33.39-1-1.53-4.38-1.53-4.38a4.79,4.79,0,0,0,.65-2.1c0-1.15-3.14-3.49-3.14-3.49l.1-1.27c.11-1.26-2.2-2.23-2.2-2.23S181.11,94.05,182.19,95.6Z" />
        <path class="cls-18" d="M105.23,178c-.15,4.28-.06,6.92-.06,6.92-26.31-8.49-45.73-4.87-68.67-14.08,0,0,2.32-6.33,5.16-14.21,4.5-12.46,10.34-28.79,10.48-30a41,41,0,0,0,.25-4.42c0-3.46-.15-7.58-.47-12H63.44l16.12,6s-7,31.91,19.86,34.28a24.73,24.73,0,0,1,8.73,2.31A154.05,154.05,0,0,0,105.23,178Z" />
        <path class="cls-17" d="M71.68,80.1s-3.08,18.19-6,31.74c-.91,4.22-1.8,8-2.59,10.63A15,15,0,0,1,62,125.09c-4,7.83-14.12,11.53-18.93,5.89a0,0,0,0,1,0,0c-2-2.3-3-6.17-2.43-11.95,1.83-17.57,5.71-35,10.11-44.91a29.65,29.65,0,0,1,3-5.35C59.09,61.39,75,63.74,71.68,80.1Z" />
        <polygon class="cls-20" points="108.2 121.22 104.96 122.19 93.04 125.79 56 136.96 55.57 117.46 87.51 109.34 97.65 106.78 104.9 104.93 108.2 121.22" />
        <path class="cls-27" d="M105,122.19,93,125.79c-3.26-2.59-7.06-5.86-7.06-7,0-.94.76-5.27,1.53-9.49l10.14-2.56A95.94,95.94,0,0,1,105,122.19Z" />
        <path class="cls-28" d="M171.59,242.36l-17.74,85.08-5.48-1c4.14-13,16.37-53.49,16.93-80.73.29-13.44-2.28-23.64-10-25.73a58.23,58.23,0,0,1-7.37-2.56c-20.24-8.48-42-28.49-49.6-35.86,14.61,7.86,59.83,32.36,68.46,39.08a13.51,13.51,0,0,1,4.42,7C172.72,231.61,173.06,236.53,171.59,242.36Z" />
        <path class="cls-19" d="M105.17,184.93a129,129,0,0,0-16-4C70.4,177.4,54.54,178.1,36.5,170.85c0,0,2.32-6.33,5.16-14.21l1.93-5.37c4.08-11.33,8.43-23.59,8.55-24.64a41,41,0,0,0,.25-4.42l3.26-1.07s-3.8,37.06,24.21,37.52c16.3.26,22.79,10.68,25.37,19.35C105.08,182.29,105.17,184.93,105.17,184.93Z" />
        <path class="cls-29" d="M101.05,127.28S70,148.36,44.71,148.19c3.72-10.38,7.32-20.6,7.43-21.56a64.64,64.64,0,0,0,.19-9.08l18.44-2,17.49.7Z" />
        <path class="cls-17" d="M101.05,127.28S67,135,56,137a12.26,12.26,0,0,1-12.91-6,0,0,0,0,1,0,0c-3-5.2-1.78-12.29,7.1-15.57.64-.24,1.31-.45,2-.64s1.35-.34,2.07-.49l11.4-2.41,22.59-4.79,9.12-1.93,2.89,17.47Z" />
        <path class="cls-20" d="M108.89,109.46s4.38,1.75,6.21,0a11.84,11.84,0,0,0,2.47-3.07s7.75-2.94,9-3.5,1.67-3.16.56-3.54-11,.55-12.7,1.14-7.45,3.37-7.45,3.37Z" />
        <path class="cls-10" d="M135.38,107.74h-8.12a5.29,5.29,0,1,1,0-10.58h8.12Zm-8-7.84a2.56,2.56,0,1,0,0,5.11h6.34V99.9Z" />
        <path class="cls-10" d="M131.58,94.85h18.8a0,0,0,0,1,0,0v9.4a9.4,9.4,0,0,1-9.4,9.4h0a9.4,9.4,0,0,1-9.4-9.4v-9.4A0,0,0,0,1,131.58,94.85Z" />
        <path class="cls-18" d="M181.12,117.25s-11.33,12.11-21,22.2c-4.35,4.54-8.36,8.68-10.86,11.11a12.68,12.68,0,0,1-1.38,1.18c-4.62,6.86-14.61,7.29-21.12-5.67-2.19-4.34-4.25-8.77-6.13-13.13a172.75,172.75,0,0,1-7.74-21.37l3.41-4.52,4.52,9s3.88,13.24,12.6,18.52c3.79,2.29,8.5,3.07,14.2.61.39-.17.78-.33,1.15-.51C166.51,126.43,167.59,112.68,181.12,117.25Z" />
        <path class="cls-20" d="M104.9,104.93s8-4.42,11.69-4.44,15.7,1,16.79,1.61-.89,3.56-3.22,4-4,.65-4,.65,1.36,2.1.57,3.09l-.8,1s1.32,3.72.64,4.64a4.63,4.63,0,0,1-1.71,1.37s-.33,3.91-1.21,4.49-15.24.77-15.42-.11c-.27-.47-3.13-3.42-3.87-7.22A23.87,23.87,0,0,1,104.9,104.93Z" />
        <path class="cls-20" d="M108.2,49.79s-.9,4.22-1.94,8.67v0c-.79,3.36-1.66,6.85-2.27,8.74,0,0,4.53,13.25-.41,13.93a1.84,1.84,0,0,1-.41,0c-13.77,0-17.83-19-17.83-19L95.65,41.77Z" />
        <path class="cls-30" d="M108.2,49.79s-.9,4.22-1.94,8.67v0s-11.63-1.11-13.14,3,10.63,14.74,10.46,19.67a1.84,1.84,0,0,1-.41,0c-13.77,0-17.83-19-17.83-19L95.65,41.77Z" />
        <path class="cls-20" d="M90.34,36.8s5,22.46,18.22,21.65c16.7-1,11.61-29.53,9.51-37.7C114.54,7,92.76,14.25,89.14,19.61,86.6,24.19,90.34,36.8,90.34,36.8Z" />
        <path class="cls-21" d="M129.7,19.84a19,19,0,0,1-9.31,16.24s-.7-7-1.78-13C115,35.89,106.24,37.75,93.77,29.29c2.21,4.6-1.65,8-1.65,8s-4.67,2.43-5.27,2.26c-3.4-1.93-10.41-11.81-8.17-17.81s6.16-3.3,6.16-3.3S87,3.32,92,3.1,99.4,8.18,99.4,8.18h0c.41-.46,7.77-8.33,15.42-8.17C122.72.16,130.11,4.63,129.7,19.84Z" />
        <path class="cls-20" d="M95.05,41.38s-2-9.94-7.73-9.31-1.08,11.76,2.79,13.71c2.82,1.25,5.39-.84,5.39-.84Z" />
        <path class="cls-31" d="M88.09,36.05c.33-.37,2.69.76,3.77,3.12s.8,3.25.11,3.88-2.28,0-1.71-1.59C91.27,38.63,87.75,36.41,88.09,36.05Z" />
        <path class="cls-32" d="M113.47,38.65c.28.88.5,1.75.79,2.57a6,6,0,0,0,1.16,2.18l.25.27-.19.26a1.43,1.43,0,0,1-1.18.52,4.35,4.35,0,0,1-1-.16,6.67,6.67,0,0,1-1.82-.83c.66.09,1.3.2,1.93.24a5.33,5.33,0,0,0,.89,0,.83.83,0,0,0,.55-.23l.06.52a4.8,4.8,0,0,1-1.29-2.59A8.27,8.27,0,0,1,113.47,38.65Z" />
        <path class="cls-33" d="M112.81,47l-8.56-4.51s-2.44,4.91,2,6.89S112.81,47,112.81,47Z" />
        <path class="cls-19" d="M160.13,139.45c-4.35,4.54-8.36,8.68-10.86,11.11a12.68,12.68,0,0,1-1.38,1.18c-4.62,6.86-14.61,7.29-21.12-5.67-2.19-4.34-4.25-8.77-6.13-13.13,2.22.63,5.41,2.27,9.22,6.34,7.43,7.93,9.54,12.75,19.48,4.11A16.38,16.38,0,0,1,160.13,139.45Z" />
        <path class="cls-28" d="M129.7,19.84a19,19,0,0,1-9.31,16.24s13.29-15.89,3.45-30.15C117.11-3.82,100,7.84,99.42,8.17c.41-.46,7.77-8.33,15.42-8.17C122.72.16,130.11,4.63,129.7,19.84Z" />
        <path class="cls-23" d="M65.51,279.49c-5.83,22.47-24.88,49.19-40.1,67.93l-8.08-3.92s21-70.25,26.43-83.88c.16-.39.32-.77.48-1.13a78.65,78.65,0,0,1-2.07-8.07s-4.53-53.86-5.59-68.5c-.74-10.21,4.18-17.64,11.1-21.46l3.71,3.12s-5.53,46.66,9.1,82.09a85.55,85.55,0,0,0,3.76,8C68.09,260.8,68,269.75,65.51,279.49Z" />
        <path class="cls-24" d="M53.79,274.89c-4.31,23.76-25.43,57.85-33.4,70.1l-3.06-1.49s21-70.25,26.43-83.88c.16-.39.32-.77.48-1.13a78.65,78.65,0,0,1-2.07-8.07s-4.53-53.86-5.59-68.5c-.57-7.73,2.13-13.87,6.47-18.06l1.66,2.23s-4.75,58,4.77,84.75A36.5,36.5,0,0,0,52.3,257C54.89,261.45,55.12,267.69,53.79,274.89Z" />
        <path class="cls-34" d="M89.15,180.91C70.4,177.4,54.54,178.1,36.5,170.85c0,0,2.32-6.33,5.16-14.21l1.93-5.37c1.6,4.71,5.52,10.47,15.08,12C74.3,165.78,88,168,89.15,180.91Z" />
        <path class="cls-18" d="M101.05,127.28s-10.6,2.4-21.9,4.87C70.23,134.1,60.87,136.09,56,137a12.26,12.26,0,0,1-12.91-6,0,0,0,0,1,0,0c-2-2.3-3-6.17-2.43-11.95.58-5.55,1.36-11.08,2.3-16.37,2-11.47,4.8-21.78,7.81-28.54,1.89,4.42,4.61,13.59,2,25.81-1.27,5.95-2.57,11.28-2.56,15.48,0,6,2.7,9.69,11.84,9.71a65.78,65.78,0,0,0,12.71-1.51c12.47-2.48,20.46-2.18,25.54-1Z" />
        <path class="cls-19" d="M79.15,132.15C70.23,134.1,60.87,136.09,56,137a12.26,12.26,0,0,1-12.91-6,0,0,0,0,1,0,0c-2-2.3-3-6.17-2.43-11.95.58-5.55,1.36-11.08,2.3-16.37,1.93,6.08,4.22,14.82,3.78,20.86-.76,10.16,9.34,10.16,22.28,7.6C73.42,130.22,76.72,130.88,79.15,132.15Z" />
        <path class="cls-18" d="M45.26,403.45,0,372.14l5.17-7.46A36.05,36.05,0,0,1,11,358.41c1.46,8.42,5.71,22.75,17.94,25C38,385,45,389.06,49,393.43,51.54,400.23,45.26,403.45,45.26,403.45Z" />
        <path class="cls-19" d="M45.3,403.43l0,0L0,372.14l5.13-7.39c2.32,7,7.85,18.47,19.67,20.93C38.09,388.46,43.5,398.75,45.3,403.43Z" />
        <path class="cls-18" d="M174.4,374.65,123.12,355l2.52-7.45c2.12-7.42,5-8.92,5-8.92s-5.11,16,10.85,16.37S169.62,360.19,174.4,374.65Z" />
        <path class="cls-19" d="M162.94,370.26,123.12,355l2.11-6.25c1.5,4.2,5.2,9.51,14.22,9.51C152.56,358.28,159.58,360.9,162.94,370.26Z" />
        </g>
        <path class="cls-3" d="M289.47,362.58a378.21,378.21,0,0,1-43.7,5.57c-36.15,2.65-65.7,8.11-69.66-10.93C173.56,345,200.8,312.6,240,307.31a125.09,125.09,0,0,1,13.59-1.06C255,321.61,261.76,347,289.47,362.58Z" />
        <path class="cls-4" d="M237.08,368.85c-32.11,2.68-57.33,5.85-61-11.63C174,347,192.75,322.57,222,311.81,220.06,326.79,220,352,237.08,368.85Z" />
      </g>
    </g>
  </g>
</svg>