<svg xmlns="http://www.w3.org/2000/svg" xmlns:xlink="http://www.w3.org/1999/xlink" viewBox="0 0 554.77 482.28">
  <defs>
    <style>
  @keyframes float-vertical {
    0% {
      transform: translateY(0)
    }

    50% {
      transform: translate3d(0, -20px, 0)
    }

    100% {
      transform: translate3d(0, 0, 0)
    }
  }

  .xn-h-l,
  .xn-h-r {
    animation: float-vertical 4s ease-in-out infinite;
  }

  .xn-h-r {
    animation-delay: 1500ms;
  }
      
      .cls-1 {
        isolation: isolate;
      }

      .cls-2 {
        fill: url(#linear-gradient);
      }

      .cls-3 {
        fill: #2d333f;
      }

      .cls-4 {
        fill: url(#linear-gradient-2);
      }

      .cls-5 {
        fill: url(#linear-gradient-3);
      }

      .cls-6 {
        fill: url(#linear-gradient-4);
      }

      .cls-7 {
        fill: #feb9a7;
      }

      .cls-8 {
        fill: url(#linear-gradient-5);
      }

      .cls-11,
      .cls-9 {
        fill: #1a1d25;
      }

      .cls-10 {
        fill: url(#linear-gradient-6);
      }

      .cls-11,
      .cls-47 {
        opacity: 0.4;
      }

      .cls-11,
      .cls-28,
      .cls-30,
      .cls-34,
      .cls-40,
      .cls-41,
      .cls-47,
      .cls-48,
      .cls-50,
      .cls-54,
      .cls-55 {
        mix-blend-mode: multiply;
      }

      .cls-12 {
        fill: #8540ff;
      }

      .cls-13 {
        fill: url(#linear-gradient-7);
      }

      .cls-14,
      .cls-41,
      .cls-47,
      .cls-50 {
        fill: #6f35ed;
      }

      .cls-15 {
        fill: #5221d8;
      }

      .cls-16 {
        fill: url(#linear-gradient-8);
      }

      .cls-17 {
        fill: url(#linear-gradient-9);
      }

      .cls-18 {
        fill: #ffea06;
      }

      .cls-19 {
        fill: #f29525;
      }

      .cls-20 {
        fill: url(#linear-gradient-10);
      }

      .cls-21 {
        fill: #fe8d7e;
      }

      .cls-22 {
        fill: url(#linear-gradient-11);
      }

      .cls-23 {
        fill: #a6bfe2;
      }

      .cls-24 {
        fill: #fff;
      }

      .cls-25 {
        fill: url(#linear-gradient-12);
      }

      .cls-26 {
        fill: url(#linear-gradient-13);
      }

      .cls-27 {
        fill: url(#linear-gradient-14);
      }

      .cls-28,
      .cls-30,
      .cls-40,
      .cls-48 {
        opacity: 0.5;
      }

      .cls-28 {
        fill: url(#linear-gradient-15);
      }

      .cls-29 {
        fill: url(#linear-gradient-16);
      }

      .cls-30 {
        fill: url(#linear-gradient-17);
      }

      .cls-31 {
        fill: url(#linear-gradient-18);
      }

      .cls-32 {
        fill: #ff3aec;
      }

      .cls-33,
      .cls-34 {
        fill: #ed1bcf;
      }

      .cls-34 {
        opacity: 0.66;
      }

      .cls-35,
      .cls-46,
      .cls-49 {
        fill: none;
        stroke-miterlimit: 10;
      }

      .cls-35 {
        stroke: #fff;
        stroke-width: 2.86px;
      }

      .cls-36 {
        fill: url(#linear-gradient-19);
      }

      .cls-37 {
        fill: url(#linear-gradient-20);
      }

      .cls-38 {
        fill: url(#linear-gradient-21);
      }

      .cls-39 {
        fill: url(#linear-gradient-22);
      }

      .cls-40 {
        fill: url(#linear-gradient-23);
      }

      .cls-41 {
        opacity: 0.2;
      }

      .cls-42 {
        fill: url(#linear-gradient-24);
      }

      .cls-43 {
        fill: url(#linear-gradient-25);
      }

      .cls-44 {
        fill: url(#linear-gradient-26);
      }

      .cls-45 {
        fill: url(#linear-gradient-27);
      }

      .cls-46 {
        stroke: #f5b3ff;
      }

      .cls-46,
      .cls-49 {
        stroke-width: 4.77px;
      }

      .cls-48 {
        fill: url(#linear-gradient-28);
      }

      .cls-49 {
        stroke: #ff3aec;
      }

      .cls-50 {
        opacity: 0.44;
      }

      .cls-51 {
        fill: url(#linear-gradient-29);
      }

      .cls-52 {
        fill: url(#linear-gradient-30);
      }

      .cls-53 {
        fill: url(#linear-gradient-31);
      }

      .cls-54 {
        opacity: 0.36;
        fill: url(#linear-gradient-32);
      }

      .cls-55 {
        opacity: 0.6;
        fill: url(#linear-gradient-33);
      }
    </style>
    <linearGradient id="linear-gradient" x1="6.36" y1="318.45" x2="514.47" y2="318.45" gradientUnits="userSpaceOnUse">
      <stop offset="0" stop-color="#f29525"></stop>
      <stop offset="1" stop-color="#ffea06"></stop>
    </linearGradient>
    <linearGradient id="linear-gradient-2" x1="296.38" y1="408.79" x2="288.92" y2="199.8" gradientUnits="userSpaceOnUse">
      <stop offset="0" stop-color="#2d333f"></stop>
      <stop offset="1" stop-color="#3d4654"></stop>
    </linearGradient>
    <linearGradient id="linear-gradient-3" x1="257.02" y1="282.29" x2="407.04" y2="96.44" xlink:href="#linear-gradient-2"></linearGradient>
    <linearGradient id="linear-gradient-4" x1="193.87" y1="197.08" x2="54.29" y2="175.44" xlink:href="#linear-gradient-2"></linearGradient>
    <linearGradient id="linear-gradient-5" x1="207.95" y1="315.66" x2="215.04" y2="278.53" gradientUnits="userSpaceOnUse">
      <stop offset="0" stop-color="#fe8d7e" stop-opacity="0.6"></stop>
      <stop offset="1" stop-color="#f26f75"></stop>
    </linearGradient>
    <linearGradient id="linear-gradient-6" x1="252.21" y1="173.92" x2="220.36" y2="308.27" gradientUnits="userSpaceOnUse">
      <stop offset="0" stop-color="#2d333f" stop-opacity="0.3"></stop>
      <stop offset="1" stop-color="#3d4654" stop-opacity="0.2"></stop>
    </linearGradient>
    <linearGradient id="linear-gradient-7" x1="223.58" y1="119.33" x2="231.05" y2="136.99" gradientUnits="userSpaceOnUse">
      <stop offset="0" stop-color="#feb9a7"></stop>
      <stop offset="1" stop-color="#f26f75"></stop>
    </linearGradient>
    <linearGradient id="linear-gradient-8" x1="316.42" y1="71.14" x2="316.67" y2="111.19" gradientUnits="userSpaceOnUse">
      <stop offset="0" stop-color="#ad88ff"></stop>
      <stop offset="1" stop-color="#8540ff"></stop>
    </linearGradient>
    <linearGradient id="linear-gradient-9" x1="312.4" y1="71.61" x2="331.62" y2="121.43" gradientUnits="userSpaceOnUse">
      <stop offset="0" stop-color="#fe8d7e"></stop>
      <stop offset="1" stop-color="#f26f75"></stop>
    </linearGradient>
    <linearGradient id="linear-gradient-10" x1="315.66" y1="41.43" x2="312.11" y2="59.3" xlink:href="#linear-gradient-9"></linearGradient>
    <linearGradient id="linear-gradient-11" x1="299.91" y1="53.21" x2="299.12" y2="69.98" xlink:href="#linear-gradient-9"></linearGradient>
    <linearGradient id="linear-gradient-12" x1="182.4" y1="128.08" x2="169.46" y2="97.23" gradientTransform="translate(49.86 -52.52) rotate(19.34)" xlink:href="#linear-gradient-2"></linearGradient>
    <linearGradient id="linear-gradient-13" x1="184.11" y1="135.33" x2="177.4" y2="113.81" gradientUnits="userSpaceOnUse">
      <stop offset="0" stop-color="#2d333f"></stop>
      <stop offset="1" stop-color="#2d333f"></stop>
    </linearGradient>
    <linearGradient id="linear-gradient-14" x1="286.69" y1="276.07" x2="327.27" y2="276.07" xlink:href="#linear-gradient"></linearGradient>
    <linearGradient id="linear-gradient-15" x1="287.68" y1="280.08" x2="327.27" y2="280.08" xlink:href="#linear-gradient"></linearGradient>
    <linearGradient id="linear-gradient-16" x1="173.72" y1="332.35" x2="230.16" y2="332.35" xlink:href="#linear-gradient"></linearGradient>
    <linearGradient id="linear-gradient-17" x1="173.72" y1="336.34" x2="230.16" y2="336.34" xlink:href="#linear-gradient"></linearGradient>
    <linearGradient id="linear-gradient-18" x1="279.27" y1="173.75" x2="311.74" y2="173.75" xlink:href="#linear-gradient-9"></linearGradient>
    <linearGradient id="linear-gradient-19" x1="47.9" y1="418.65" x2="211.91" y2="418.65" xlink:href="#linear-gradient"></linearGradient>
    <linearGradient id="linear-gradient-20" x1="196.21" y1="349.46" x2="79.4" y2="408.42" gradientUnits="userSpaceOnUse">
      <stop offset="0" stop-color="#fff"></stop>
      <stop offset="1" stop-color="#dfe9f2"></stop>
    </linearGradient>
    <linearGradient id="linear-gradient-21" x1="197.69" y1="352.38" x2="80.87" y2="411.34" gradientUnits="userSpaceOnUse">
      <stop offset="0" stop-color="#dfe9f2"></stop>
      <stop offset="1" stop-color="#a6bfe2"></stop>
    </linearGradient>
    <linearGradient id="linear-gradient-22" x1="231.58" y1="419.53" x2="114.77" y2="478.5" xlink:href="#linear-gradient-21"></linearGradient>
    <linearGradient id="linear-gradient-23" x1="3.67" y1="385.48" x2="210.84" y2="385.48" xlink:href="#linear-gradient"></linearGradient>
    <linearGradient id="linear-gradient-24" x1="213.87" y1="384.44" x2="97.06" y2="443.41" xlink:href="#linear-gradient-20"></linearGradient>
    <linearGradient id="linear-gradient-25" x1="201.92" y1="392.31" x2="108.25" y2="443.25" gradientUnits="userSpaceOnUse">
      <stop offset="0" stop-color="#fff"></stop>
      <stop offset="1" stop-color="#b8cce7"></stop>
    </linearGradient>
    <linearGradient id="linear-gradient-26" x1="456.86" y1="228.09" x2="349.37" y2="316.91" xlink:href="#linear-gradient-20"></linearGradient>
    <linearGradient id="linear-gradient-27" x1="456.86" y1="228.09" x2="349.38" y2="316.91" xlink:href="#linear-gradient-20"></linearGradient>
    <linearGradient id="linear-gradient-28" x1="5.41" y1="332.66" x2="80.67" y2="332.66" xlink:href="#linear-gradient"></linearGradient>
    <linearGradient id="linear-gradient-29" x1="338.14" y1="298.91" x2="432.69" y2="298.91" xlink:href="#linear-gradient-21"></linearGradient>
    <linearGradient id="linear-gradient-30" x1="212.11" y1="435.32" x2="154.79" y2="464.26" xlink:href="#linear-gradient-20"></linearGradient>
    <linearGradient id="linear-gradient-31" x1="285.23" y1="170.94" x2="285.12" y2="170.6" xlink:href="#linear-gradient-13"></linearGradient>
    <linearGradient id="linear-gradient-32" x1="389.17" y1="272.03" x2="354.9" y2="333.07" xlink:href="#linear-gradient-21"></linearGradient>
    <linearGradient id="linear-gradient-33" x1="445.97" y1="240.59" x2="382.9" y2="352.93" xlink:href="#linear-gradient-21"></linearGradient>
  </defs>
  <g class="cls-1">
    <g id="Layer_2" data-name="Layer 2">
      <g id="Layer_1-2" data-name="Layer 1">
        <path class="cls-2" d="M513.58,239.4c-3.07,36.87-34,64.66-69,72.17-43.83,10-87.09-6.82-129.33-15.5-64-12.94-132.35-31.12-194.48-1.6-16.24,6.16-33.41,16.07-46.83,29C62.2,334.7,53.31,348.25,50.44,363.5a57.68,57.68,0,0,0,.15,22.13c.87,7.16,6,11.75,11.43,16.08l-6.49,25.71L50,449.16c-14.37-6.4-26.62-18.47-34.91-31.88-6.71-11.74-9-25.44-8.73-38.95a112.09,112.09,0,0,1,1.38-15.09,110.8,110.8,0,0,1,23.75-50.3A139.62,139.62,0,0,1,60.07,287C104.86,256,168.8,245.33,218,253.62c43.2,7.44,85,19.78,126.66,32.61,24.47,7.9,48.11,16.25,73.57,17.78,72.41,3.76,104.52-48.79,91-116.1l1-.18C513.73,204.56,515.73,222,513.58,239.4Z"></path>
        <path class="cls-3" d="M292.13,430.4c-25.17,4-154.43,11.79-182.62-65.14S143,262,171.05,241.56,214.5,188.87,218,161.48s3-118.69,108.23-122.8c98.28-1.63,106.26,52.83,111.48,99.24s60.12,68.33,41.53,145.44C466.36,336.73,413.54,411.25,292.13,430.4Z"></path>
        <path class="cls-3" d="M83.53,233.8c-9-7.24-18-37.1-1.56-53.69s40.18-35.14,55.64-58.76,22.73-45.85,39.08-43,31.68,43.09,12.84,93.2S117.19,261,83.53,233.8Z"></path>
        <path class="cls-4" d="M478.72,283.61a158.41,158.41,0,0,1-16.05,40.12c-17.5-7.27-41.72-11-71.07.67-41.93,16.64-44.76,62.52-42,91.36a302.24,302.24,0,0,1-58,14.89c-7.47,1.18-24.08,2.7-44.5,2.24-2.89-18.12-9.17-35.6-20.2-50.14-15.63-20.61-42-34.15-67.51-29.9-11.56,1.93-22.25,7.22-32.61,12.7q-7.26,3.82-14.43,7.83a80.61,80.61,0,0,1-3.37-7.87c-18.69-51,2.15-79.8,26.48-99.34,31,22.1,73.18,59.07,130.08,48.45C343.09,300.13,412.5,207,472.48,228.88c2.68,1,5.23,1.94,7.68,2.9C483.41,246.09,483.73,262.86,478.72,283.61Z"></path>
        <path class="cls-5" d="M467.41,200.3c-25.26-8-51.16-12-76.49-5.37C356,204,328.69,231.86,294.39,243a108.82,108.82,0,0,1-86.94-9.31c-5.75-3.34-11.17-7.21-16.71-10.92a122.4,122.4,0,0,0,26.59-59.91c23.85-7.3,41.12-28.23,54.6-49.37a375.7,375.7,0,0,0,36-72.86h0a159.59,159.59,0,0,1,17.79-1.65c15.67-.26,29,.91,40.46,3.23a226.62,226.62,0,0,0,1.44,28.19c1.52,13.65,4.1,27.42,10.3,39.68,10.88,21.52,32.15,36.5,55.07,44,3,1,6,1.82,9,2.56C448.16,171.61,458.65,184.89,467.41,200.3Z"></path>
        <path class="cls-6" d="M191.57,165.79c-.63,1.91-1.3,3.85-2,5.8A129.76,129.76,0,0,1,166.68,210a96.26,96.26,0,0,0-90.39,12.58c-4.85-12.31-6-30.72,5.68-42.46,11.34-11.4,26.09-23.75,39.21-38,15.63,14.8,38.93,21.2,60.92,23.12C185.25,165.49,188.42,165.7,191.57,165.79Z"></path>
        <polygon class="cls-7" points="201.74 287.84 198.94 314.34 218.72 317.14 224.13 291.2 201.74 287.84"></polygon>
        <path class="cls-8" d="M224.14,291.2l-5.42,25.93-10.43-1.47c2.07-3.18,6.66-10.62,6.38-13.92-.31-3.52-10.15-6.66-13.58-7.65l.65-6.25Z"></path>
        <path class="cls-9" d="M199.32,290.45l29.11,6,23.39-94.18L328.7,209l-3.48-37.82s-79.62-3.73-98.78,9S199.32,290.45,199.32,290.45Z"></path>
        <path class="cls-10" d="M226.45,180.11c9.82-6.5,35.51-8.7,58.23-9.28-5.42.21-31,1.6-46.13,9.59-1.31,9.7-14.41,8.2-14.41,8.2s-1.45,1.87-7.23,18.85c-5,14.78-12.65,69.64-14.54,83.62l-3.05-.63S207.28,192.8,226.45,180.11Z"></path>
        <path class="cls-9" d="M366.52,216.44C355,229,308,219.54,281.82,213c-10.62-2.64-17.81-4.79-17.81-4.79l4-35.47,97.3-2,5.21-.11S382.69,198.77,366.52,216.44Z"></path>
        <path class="cls-11" d="M366.52,216.44c-9.9,10.81-46.07,5.32-72.66-.58-4.32-1-8.38-1.92-12-2.84l.43-2.62,10.42-6.27s54.14,13.7,62.18-5.9c5.07-12.37-6.62-18.59,10.44-27.48l5.21-.11S382.69,198.77,366.52,216.44Z"></path>
        <path class="cls-11" d="M366.52,216.44c-9.9,10.81-46.07,5.32-72.66-.58,6.23-7,26-1.8,52.6-2,29.91-.23,24-43.23,24-43.23S382.69,198.77,366.52,216.44Z"></path>
        <path class="cls-9" d="M250.58,200.26l42.29,78.62,22.64-9.45S294.36,196.28,292.42,191C279.69,156,239.13,178.37,250.58,200.26Z"></path>
        <path class="cls-12" d="M289.13,89.07S261.64,126.89,255,140.54s9.31,33.13,27.55,11.54,23.66-33.11,27.75-44.33S299.19,73.74,289.13,89.07Z"></path>
        <polygon class="cls-13" points="264.93 134.91 201.34 114.63 195.73 135.68 262.83 160.41 264.93 134.91"></polygon>
        <path class="cls-12" d="M266.87,130.82l-55.71-15.36-6.55,28.72s44.2,13.64,58.49,17.1C281.17,165.65,294.4,137.88,266.87,130.82Z"></path>
        <path class="cls-14" d="M307.87,114c-.53,1.24-1.1,2.51-1.72,3.8-3.25,6.85-8,14.68-16.21,25.23q-3.29,4.22-7.37,9.05l-.15.18c-1.15-22.53,8.9-40.7,8.9-40.7Z"></path>
        <path class="cls-15" d="M306.15,117.8c-3.25,6.85-8,14.68-16.21,25.23-3.06-10.27,2.73-25.79,2.73-25.79Z"></path>
        <path class="cls-12" d="M370.5,170.64s3.76-2.78,2.18-7.07-2.71-3.11-3-8.09S367.31,96.78,365,84,333.68,65.6,305.87,76.8s-19.78,31-16.61,38.62,19.22,40.68,20.53,43.29-4.1,5.88-4.1,8.12,3.48,5.08,3.48,5.08Z"></path>
        <path class="cls-14" d="M370.5,170.64l-20.05.41-1.39,0-.95,0-38.94.8a18.83,18.83,0,0,1-1.5-1.43L306,165.75c1.14-2.14,4.87-4.83,3.76-7-.57-1.15-6.35-13.08-10.25-21.19,6.07-7.16,15-2.73,18.74-5.94,5.49-4.66,14.57-32.5,14.57-32.5l9.46,20.59L362.7,113s-3.23,25.39-.06,31.55c1.15,2.23,3.8,3.43,6.73,4.06.16,3.5.27,6,.32,6.85.28,5,1.4,3.78,3,8.07S370.5,170.64,370.5,170.64Z"></path>
        <path class="cls-16" d="M332.27,70.88v.3c0,.68-.06,16.86-8.32,25.15a16.29,16.29,0,0,1-11.92,4.9,10.26,10.26,0,0,1-8.62-4c-3.92-5.2-2.76-14-1.84-18.45q2-1,4.3-1.94A82.91,82.91,0,0,1,332.27,70.88Z"></path>
        <path class="cls-7" d="M328.46,71.18,311.74,44.93,298.1,56.11l7.77,21.09S300.09,97.42,312,97.42C328.52,97.42,328.46,71.18,328.46,71.18Z"></path>
        <path class="cls-17" d="M328.36,73.49c-.44,6.41-2.86,23.93-16.33,23.93-11.95,0-6.16-20.22-6.16-20.22L302.12,67l6.38-7c3.07,1.91,3.82,6.08,3.41,9.68s-1.65,7.11-1.37,10.71a4.91,4.91,0,0,0,.63,2.31c1.24,2,4.36,2,6.32.62s3.08-3.57,4.38-5.56,3.06-4,5.4-4.29A10.05,10.05,0,0,1,328.36,73.49Z"></path>
        <path class="cls-9" d="M278.35,38S276.43,50.2,284,56.55c0-15.11.47-19.71.47-19.71Z"></path>
        <path class="cls-7" d="M315,44s.08,26.32-15.18,28.12c-18.76,2.22-19.6-30-19.16-39.5.75-16,26.5-13,31.72-7.9C316.26,29.15,315,44,315,44Z"></path>
        <path class="cls-9" d="M310.16,48.93s-5.47-1.12-3.73-11.69C294,53.91,273.5,49,275.36,32.56c1.27-11.18,11.79-17.84,25.47-16.1s14.38,7.59,14.38,7.59,1.17-.87,3.16,1.87.21,18.55-3.27,21.41C311.16,49.18,310.16,48.93,310.16,48.93Z"></path>
        <path class="cls-7" d="M310.16,48.93s-.11-11.44,6.42-12.07,3.88,12.75.06,15.8c-2.84,2-6.16.31-6.16.31Z"></path>
        <path class="cls-18" d="M275.24,34.62s5.49-8.58,44-.8l5.88-25.57-10.84,7.94L306.18,3.28l-9,10.2L287,3.28,282.3,16.19,271.1,6.51Z"></path>
        <path class="cls-19" d="M320.47,28.3l-1.27,5.52c-38.48-7.78-43.95.8-43.95.8l-.92-6.19C277,26.39,287.09,21.6,320.47,28.3Z"></path>
        <path class="cls-20" d="M316.64,41.44c-.46-.33-2.81,1.46-3.46,4.32s-.14,3.78.76,4.31,2.52-.55,1.54-2.15C313.71,45,317.09,41.76,316.64,41.44Z"></path>
        <path class="cls-21" d="M292,54a9.4,9.4,0,0,1,.53,3.08,5.44,5.44,0,0,1-.84,3.16l-.05-.6c.12.11.25.15.56.06a7.22,7.22,0,0,0,.95-.4,7.54,7.54,0,0,1,1.06-.42,1.89,1.89,0,0,1,1.15,0,4.43,4.43,0,0,0-1.87,1,5.31,5.31,0,0,1-1,.61,1.69,1.69,0,0,1-.71.15,1.23,1.23,0,0,1-.79-.34l-.28-.25.23-.35a4.32,4.32,0,0,0,.52-1.24,12.92,12.92,0,0,0,.26-1.43C291.86,56,291.9,55,292,54Z"></path>
        <path class="cls-22" d="M295.05,62.32l7.51-6.51s3.58,4.34-.44,7.36S295.05,62.32,295.05,62.32Z"></path>
        <rect class="cls-23" x="163.21" y="100.73" width="27.91" height="45.03" rx="3.81" transform="translate(-30.82 65.63) rotate(-19.34)"></rect>
        <rect class="cls-24" x="165.87" y="99.79" width="27.91" height="45.03" rx="3.81" transform="translate(-30.36 66.46) rotate(-19.34)"></rect>
        <rect class="cls-25" x="168.39" y="103.74" width="21.27" height="32.59" rx="1.62" transform="translate(-29.65 66.07) rotate(-19.34)" style="fill: rgb(255, 234, 100);"></rect>
        <path class="cls-26" d="M192.93,132.42l-17,6a1.62,1.62,0,0,1-2.07-1l-4-11.38a28.23,28.23,0,0,0,19.08-9.86l5,14.19A1.61,1.61,0,0,1,192.93,132.42Z" style="fill: rgb(255, 234, 100);"></path>
        <rect class="cls-23" x="183.28" y="138.03" width="4.6" height="2.61" rx="1.31" transform="translate(-35.67 69.33) rotate(-19.34)"></rect>
        <path class="cls-7" d="M199.82,130.18s-10.2,1.29-10.16-9.47c-5.12,2.61-7.75,3.16-9.95,2.73S181,117,184.43,114s7-5.32,10.19-4.82,11.6,7,11.6,7Z"></path>
        <path class="cls-27" d="M298.24,291s-15.79-8.33-10.45-22,30.94-8.53,39.48,6.83C307.21,289.32,298.24,291,298.24,291Z"></path>
        <path class="cls-28" d="M327.27,275.87c-20.06,13.45-29,15.16-29,15.16s-7.78-4.1-10.56-11.28a9.26,9.26,0,0,0,1.29,0,19.13,19.13,0,0,0,7.49-2.49,36.89,36.89,0,0,0,6.56-4.51,14.66,14.66,0,0,1,2.92-2.19c3.25-1.63,7.14-.17,10.77-.21a12.27,12.27,0,0,0,5.09-1.2A25.87,25.87,0,0,1,327.27,275.87Z"></path>
        <path class="cls-29" d="M177.88,363s-9-10-.5-21.45,14.85-18.95,16.22-22.06,1.22-16.95,4-17.67,3.73,9.58,6.47,11.08,12.4,1.8,13.81,1.74,2.41-4.87,2.41-4.87,3.56.14,5.18,4.37,4.71,14.29,4.71,14.29Z"></path>
        <path class="cls-30" d="M230.16,328.38,177.88,363s-7.21-8-2.64-17.88c1.44,2,3.7,3.47,6.11,3.12a10.39,10.39,0,0,0,2.83-1,76.83,76.83,0,0,0,7.81-4c5.64-3.47,10.56-8.5,17-10.08,3.1-.75,6.54-.71,9.14-2.57a14.86,14.86,0,0,0,2.48-2.47c1.85-2.15,3.83-4.94,2.83-7.6-.59-1.56-2.06-2.59-3.16-3.85a8.71,8.71,0,0,1-1.56-2.62,15.2,15.2,0,0,0,1.55-4.25s3.56.14,5.17,4.37S230.16,328.38,230.16,328.38Z"></path>
        <path class="cls-15" d="M360.6,121.34s-1.48,49.3-24.3,50H314.73l.51-22.07,21.06-20.2,15-10.28Z"></path>
        <path class="cls-12" d="M337,82S326.77,122,325.47,137.07s20.52,27.62,29.85.93,10.26-39.37,10.08-51.31S341,64.11,337,82Z"></path>
        <polygon class="cls-7" points="348.23 149.86 310.43 175.6 291.27 188.66 289.13 190.12 275.25 173.32 279.27 170.31 294.6 158.84 328.69 133.34 348.23 149.86"></polygon>
        <path class="cls-31" d="M311.74,167.29l-1.31,8.31-19.16,13.06c-2.53-7.27-8.26-14.29-12-18.35l15.33-11.47Z"></path>
        <path class="cls-12" d="M326.5,129.38,281.64,165.8l19.57,22s35.9-28.33,47-38C362.29,137.69,348.23,111.07,326.5,129.38Z"></path>
        <path class="cls-7" d="M275.25,173.32s-4.46,3-5.11,3.49-11.95-.63-15.06,2.4-12.51,28.63-13,30.82,4.55,3.07,6.92-1.41,3.52-6.31,3.52-6.31-.19,3.48,1.54,4.39a6.91,6.91,0,0,0,3.78.58,6,6,0,0,0,4,1.21c2.18-.26,3.64,2.75,6.86,1.68s11-4.95,10.5-9.14a10.82,10.82,0,0,0-1.21-3.18l11.15-7.73Z"></path>
        <path class="cls-7" d="M268.7,210.17c-3.23,1.07-4.69-1.94-6.86-1.68a6,6,0,0,1-4-1.22,6.75,6.75,0,0,1-3.78-.57c-1.73-.9-1.54-4.39-1.54-4.39L255.91,192s2.49,1.18,3.29.92a6.08,6.08,0,0,0,5.1,1.69c.93,1.24,3.11,3.91,5.42,3.48-.13,2.49.92,2.67.92,2.67l7.34-2.9a10.82,10.82,0,0,1,1.21,3.18C279.7,205.22,271.91,209.1,268.7,210.17Z"></path>
        <path class="cls-32" d="M462.49,399.52a59.52,59.52,0,0,1-19.39,23.54,62.85,62.85,0,0,1-6.59,4.13,59.87,59.87,0,0,1-77-17.72c-.94-1.29-1.81-2.62-2.63-4a59.87,59.87,0,0,1,14.52-78.34c.56-.43,1.11-.85,1.68-1.26a59.87,59.87,0,0,1,89.39,73.61Z"></path>
        <ellipse class="cls-33" cx="392.51" cy="340.71" rx="23.79" ry="7.84" transform="translate(-97.75 168.11) rotate(-21.56)"></ellipse>
        <ellipse class="cls-33" cx="401.04" cy="410.08" rx="6.34" ry="15.41" transform="translate(-91.58 703.89) rotate(-76.45)"></ellipse>
        <path class="cls-33" d="M458,407.62a32.13,32.13,0,0,1-.91-52.73,33.26,33.26,0,0,1,6.26-3.53h0A60,60,0,0,1,458,407.62Z"></path>
        <path class="cls-33" d="M373.38,423.27a59.94,59.94,0,0,1-23.28-63.62c7.88,5.77,15,14.74,19.67,25.88C375.39,398.88,376.39,412.55,373.38,423.27Z"></path>
        <path class="cls-34" d="M462.49,399.52a59.87,59.87,0,0,1-103,10c-.94-1.29-1.81-2.62-2.63-4a59.86,59.86,0,0,1,14.52-78.34,49.34,49.34,0,0,0-4.64,13.39c-2.83,15.25,4.63,33.27,19.48,37.76,6.07,1.83,12.56,1.29,18.84,2.15s13,3.75,15.34,9.62c2.18,5.43.1,12.13,3.22,17.07,3.34,5.28,11.08,5.8,16.91,3.55s10.64-6.54,16.3-9.2A29.38,29.38,0,0,1,462.49,399.52Z"></path>
        <polyline class="cls-35" points="430.52 355.34 383.19 373.01 427.11 396.7"></polyline>
        <circle class="cls-24" cx="430.52" cy="355.34" r="8.12"></circle>
        <circle class="cls-24" cx="427.11" cy="396.7" r="8.12"></circle>
        <circle class="cls-24" cx="383.19" cy="373.01" r="9.21"></circle>
        <path class="cls-36" d="M203.65,418.64q-1.59,1.5-3.24,3C162.38,455,96.51,468.39,50,449.16l5.5-21.74L62,401.71c25.81,16.15,80.74-.88,100.08-22.42Z"></path>
        <path class="cls-37" d="M192.62,357.83,165.75,357a42,42,0,0,0-24.57,7c-27.38,18.2-63.68,40.48-62.76,42.66,1.15,2.73,83.38-26.27,83.38-26.27Z"></path>
        <path class="cls-38" d="M192.63,357.83,161.8,380.4s-82.23,29-83.38,26.26c-.39-.92,5.83-5.41,15.22-11.66,16.53-5.42,34.71-11.72,43.65-14.84a39.85,39.85,0,0,0,10.37-5.45l24-17.54Z"></path>
        <path class="cls-39" d="M223.07,415.77l-14.55,22.6a42.08,42.08,0,0,1-19.71,16.27c-30.52,12.22-69.46,29.48-70.74,27.48-1.6-2.49,68.93-53.77,68.93-53.77Z"></path>
        <path class="cls-40" d="M200.41,421.6C162.38,455,96.51,468.39,50,449.16c-14.37-6.4-26.62-18.47-34.91-31.88-9.24-16.17-10.19-36-7.35-54a110.8,110.8,0,0,1,23.75-50.3c-17.19,51.88-13.46,106.84,24,114.48a31.34,31.34,0,0,0,6.72.61c55.06-.72,108.05-46,136-9.38C199,419.64,199.7,420.62,200.41,421.6Z"></path>
        <path class="cls-12" d="M446.37,261.46s-2.22,54.73-76.23,93.61c-3.46,1.82-7,3.66-10.71,5.5C304.92,388,229.49,417.88,192.62,432.06,166.76,420.78,161,374.48,161,374.48c17.64-12.12,46.45-31.63,77.88-51.67,29.09-18.57,60.42-37.59,87.19-51.66C400,232.25,446.37,261.46,446.37,261.46Z"></path>
        <path class="cls-34" d="M436.51,427.19a59.87,59.87,0,0,1-77-17.72c-.94-1.29-1.81-2.62-2.63-4A59.73,59.73,0,0,1,350.55,358c1.37,15,7.06,34.65,27.19,36.72,33,3.4,15.73,30.89,39.09,30.6A95.75,95.75,0,0,1,436.51,427.19Z"></path>
        <path class="cls-14" d="M446.12,264c-1.5,11.24-11.47,57.16-76,91-54.88,28.85-138.16,61.86-177.51,77C166.77,420.78,161,374.48,161,374.48c4.79-3.29,10.4-7.12,16.66-11.37-4.27,9.79-3.6,23.94,2.57,31,4.9,5.61,15.12,7.86,19.21,1.64,1.07-1.64,2.35-4,4.21-3.4-1,5.88-1,13.72,4.61,15.73,4.87,1.76,9.56-2.58,13.48-6,4.9-4.22,11.07-7.57,17.51-7.09,4.33.33,8.37,2.35,12.68,2.89,7.82,1,15.34-2.94,22.24-6.75q49.91-27.46,99.79-54.95c9.81-5.4,19.7-10.86,28.33-18,10.54-8.72,18.93-19.71,27.16-30.64C435.21,279.92,441,272.16,446.12,264Z"></path>
        <path class="cls-32" d="M192.62,432.06c-13.69,5.26-22.07,8.36-22.07,8.36-16.54-14-26.21-31.55-27.45-53.52,0,0,6.68-4.72,17.88-12.42C161,374.48,166.77,420.78,192.62,432.06Z"></path>
        <path class="cls-33" d="M171.82,440c1-3.36.88-7.19-1-10.14a15.86,15.86,0,0,0-2.8-3.16,25.3,25.3,0,0,0-9.42-5.8,14.59,14.59,0,0,0-5.49-.58A68.51,68.51,0,0,1,147,407a15.24,15.24,0,0,0,3.28-16.43,7.34,7.34,0,0,0-2.39-3.34,6.19,6.19,0,0,0-3.84-1c2.17-1.53,8.18-5.74,17-11.79,0,0,5.79,46.3,31.65,57.58C182,436.13,174.64,438.91,171.82,440Z"></path>
        <path class="cls-41" d="M359.43,360.57c-14.28,7.19-30,14.55-46.1,21.75-45.3,20.27-93.5,39.28-120.71,49.74C166.76,420.78,161,374.48,161,374.48c9.44-6.49,22.08-15.09,36.61-24.75,12.62-8.4,26.66-17.6,41.27-26.92C249.69,340.06,269.79,355,307,348,330.84,343.61,347.63,349.85,359.43,360.57Z"></path>
        <path class="cls-41" d="M313.33,382.32c-45.3,20.27-93.5,39.28-120.71,49.74C166.76,420.78,161,374.48,161,374.48c9.44-6.49,22.08-15.09,36.61-24.75,11.18,16.14,31.1,29.29,66.46,22.72C285.85,368.4,301.75,373.26,313.33,382.32Z"></path>
        <path class="cls-42" d="M179.68,414.42s-78.07,35.85-81.22,29.86,70.66-50,70.66-50,27.4-14.78,33-4.53S179.68,414.42,179.68,414.42Z"></path>
        <path class="cls-43" d="M179.68,414.42s-78.07,35.86-81.22,29.86c-.82-1.56,3.55-5.68,10.48-10.91,20.17-5.45,65.07-25.78,65.07-25.78s22.55-11.52,20.73-21.41c3.3.07,6,1.07,7.41,3.61C207.78,400.05,179.68,414.42,179.68,414.42Z"></path>
        <path class="cls-44" d="M446.37,261.47s-1.86,45.76-58.76,83.31c-13.24-4.53-26.74-12.19-35.13-25.16-13.07-20.2-14.74-41.12-14-54.48C405.18,235.5,446.37,261.47,446.37,261.47Z"></path>
        <path class="cls-45" d="M446.37,261.46s0,.91-.26,2.57c0,.17,0,.36-.07.55-.06.38-.13.8-.19,1.25s-.16.94-.26,1.45c0,.07,0,.13,0,.18-.06.28-.11.56-.17.85s-.11.58-.19.89-.13.62-.21.93-.15.65-.23,1c-.16.65-.34,1.33-.53,2.05q-.15.57-.33,1.17c-.22.75-.45,1.54-.7,2.35-.52,1.61-1.11,3.33-1.81,5.16-.17.44-.34.9-.53,1.37a.19.19,0,0,1,0,.08c-.53,1.33-1.11,2.7-1.74,4.12a.67.67,0,0,1-.06.12c-.22.5-.45,1-.69,1.5-.35.75-.72,1.51-1.11,2.3q-.2.38-.39.78c-.66,1.3-1.38,2.63-2.14,4-.14.27-.31.55-.46.81-.46.82-.94,1.64-1.46,2.48l-.08.14-.29.47c-1.92,3.14-4.1,6.38-6.6,9.69l-1.35,1.77c-.23.29-.46.59-.71.89s-.47.59-.72.88c-.46.59-1,1.19-1.46,1.8-.18.2-.35.4-.51.61-1.11,1.28-2.24,2.58-3.44,3.88l-1.3,1.4-.27.29-1,1c-.59.61-1.18,1.21-1.79,1.82s-1.22,1.21-1.85,1.81l-1,.92c-.77.73-1.57,1.46-2.38,2.21s-1.95,1.73-2.95,2.6c-.6.52-1.2,1-1.82,1.54s-1.46,1.21-2.2,1.81c-1.5,1.21-3,2.41-4.64,3.6-.8.61-1.61,1.2-2.43,1.8q-3.09,2.23-6.42,4.43a85.71,85.71,0,0,1-16-7.27,57.16,57.16,0,0,1-19.13-17.89c-13.07-20.2-14.74-41.12-14-54.48q4.65-2.07,9.13-3.77a160.91,160.91,0,0,1,29.6-8.34C420.75,245.31,446.37,261.46,446.37,261.46Z"></path>
        <g class="xn-h-r">
          <path class="cls-46" d="M384.74,200.37C377,188.79,408,154.44,453.92,123.66s89.52-46.36,97.27-34.78"></path>
          <path class="cls-12" d="M536,144.62a68,68,0,1,1-68-68A67.68,67.68,0,0,1,536,144.62Z"></path>
          <path class="cls-14" d="M480.36,190.86a44.44,44.44,0,0,1-10-5.27c-4.23-3.16-7.47-7.45-10.45-11.81a190.55,190.55,0,0,1-15.07-26.14c-4.61-9.71-8.75-20.26-17.19-26.91a30,30,0,0,0-20.71-6.08,68,68,0,0,0,11.25,76.27,36.78,36.78,0,0,1,11.06,1.61A27.47,27.47,0,0,1,446.14,209a68,68,0,0,0,63.49-10.68A113.92,113.92,0,0,1,480.36,190.86Zm-56.07-36.58a11.58,11.58,0,0,1-4.48,5.78c-2.53,1.63-4.22.23-5.64-2.17-1.81-3-2.14-6.7-2.31-10.21a56,56,0,0,1,.3-10.68,13.07,13.07,0,0,1,1.63-5.08,5.79,5.79,0,0,1,4.33-2.83,6,6,0,0,1,5.26,3.19,15.38,15.38,0,0,1,1.66,6.21c.21,2,.35,4.08.42,6.12A25.41,25.41,0,0,1,424.29,154.28Zm56.1,50.49c-4.36,1.78-9.31.6-13.88-.61-2.22-.59-5.22-1.52-5.85-4.11-.58-2.42,2.88-3.61,4.71-4.07a26.87,26.87,0,0,1,6.47-.54c3.15,0,6.39.06,9.27,1.32a4.85,4.85,0,0,1,2.79,2.57,3.73,3.73,0,0,1-.65,3.38A6.54,6.54,0,0,1,480.39,204.77Z"></path>
          <path class="cls-14" d="M536,144.62a67.72,67.72,0,0,1-5.77,27.45,115.56,115.56,0,0,1-23.93-14.61c-25.27-20-40.89-49.37-54.22-78.92a68.12,68.12,0,0,1,38.34,1.9c.09.22.19.45.3.67C497.61,96.87,505.5,113,519,123.66a56.8,56.8,0,0,0,15.89,8.87A68.82,68.82,0,0,1,536,144.62Z"></path>
          <polygon class="cls-32" points="463.05 192.01 426.99 145.89 486.56 100.83 511.17 144.02 465.09 176.32 463.05 192.01"></polygon>
          <rect class="cls-33" x="441.51" y="132.72" width="44.2" height="2.86" transform="translate(9.26 296.92) rotate(-35.85)"></rect>
          <rect class="cls-33" x="446.89" y="140.63" width="44.2" height="2.86" transform="translate(5.64 301.56) rotate(-35.85)"></rect>
          <rect class="cls-33" x="454.25" y="154.68" width="23.23" height="2.86" transform="translate(-3.18 302.4) rotate(-35.85)"></rect>
          <path class="cls-47" d="M524.29,182.7A68,68,0,1,1,423.16,93.51a39.24,39.24,0,0,0,25.21,32.92c4.81,1.72,9.93,2.48,14.67,4.38s9.28,5.3,10.72,10.2c2.44,8.36-5,16.9-3.73,25.53,1.39,9.66,12.71,14.52,22.47,14.73s19.76-2.32,29.12.45A23.06,23.06,0,0,1,524.29,182.7Z"></path>
          <path class="cls-47" d="M499.28,205a68,68,0,0,1-88.08-97.77c.67,17.73,5.27,42.14,25.31,43.43,31.65,2,1.27,41.66,35.33,44.8C482.94,196.46,492.42,200.06,499.28,205Z"></path>
          <path class="cls-46" d="M551.19,88.88C559,100.47,528,134.81,482,165.6S392.5,212,384.74,200.37"></path>
        </g>
        <ellipse class="cls-18" cx="271.5" cy="6.9" rx="1.39" ry="2.89" transform="translate(14.05 93.38) rotate(-20.02)"></ellipse>
        <ellipse class="cls-18" cx="324.85" cy="7.69" rx="2.89" ry="1.39" transform="translate(206.4 310.27) rotate(-69.98)"></ellipse>
        <ellipse class="cls-18" cx="306" cy="2.87" rx="2.89" ry="1.39" transform="translate(261.04 305.56) rotate(-82.09)"></ellipse>
        <ellipse class="cls-18" cx="286.84" cy="2.87" rx="1.39" ry="2.89" transform="translate(10.48 79.76) rotate(-16.12)"></ellipse>
        <path class="cls-48" d="M76.88,318.44l-2.93,5L50.44,363.5l-44,14.83a112.09,112.09,0,0,1,1.38-15.09,110.8,110.8,0,0,1,23.75-50.3A139.62,139.62,0,0,1,60.07,287Z"></path>
        <g class="xn-h-l">
          <path class="cls-49" d="M2.69,351.4c-3.78-9.61,27.73-31,70.38-47.8s80.29-22.61,84.08-13"></path>
          <path class="cls-14" d="M132.54,317.13a54.13,54.13,0,0,1-24.88,45.57,51.43,51.43,0,0,1-7.43,4,53.6,53.6,0,0,1-21.83,4.6,54.14,54.14,0,0,1-8.46-107.62A54.78,54.78,0,0,1,78.4,263,54.13,54.13,0,0,1,132.54,317.13Z"></path>
          <path class="cls-12" d="M100.93,366.38a54.14,54.14,0,0,1-54.44-5.52,31.06,31.06,0,0,1,22-.92c2.25.78,4.39,1.82,6.6,2.71A55.33,55.33,0,0,0,100.93,366.38Z"></path>
          <path class="cls-12" d="M122.93,286.35c-1.47-.59-3-1.2-4.47-1.68-8.12-2.55-16.95-1.17-25.1,1.24-4.11,1.22-8.25,2.71-12.54,2.66-7.95-.09-14.75-5.31-22-8.58a46.59,46.59,0,0,0-15.64-4,54.14,54.14,0,0,1,79.75,10.33Z"></path>
          <path class="cls-12" d="M132.18,310.94c-4.4-1.51-8.86-3.13-13.39-2.34-6.6,1.16-12.2,7.33-18.82,6.25-3.49-.58-6.36-3.12-9.8-4-7.55-2-14.64,4.46-22.35,5.66-8.93,1.36-17.23-4.33-24.49-9.69-3-2.2-6.19-4.48-9.89-4.65a16.66,16.66,0,0,0-5.09.76c-.8.22-1.6.46-2.39.72a54.4,54.4,0,0,0,.34,28.25,19.88,19.88,0,0,1,4.12-3.18c3.64-2.08,8.29-2.71,12-.8a51.51,51.51,0,0,1,4.9,3.45c7.35,5,17.3,3.42,25.58.2,5.67-2.2,11.82-5.13,17.54-3.07,1.37.5,2.62,1.26,4,1.84a16.58,16.58,0,0,0,9.46,1.15c4.35-.76,8.51-3.26,12.87-2.64s7.47,4,11.37,5.72a13.47,13.47,0,0,0,1.38.52,54.11,54.11,0,0,0,3-17.95A52.76,52.76,0,0,0,132.18,310.94Zm-7.24,16.64c-2,0-3.61-3.09-3.61-6.91s1.61-6.9,3.61-6.9,3.6,3.09,3.6,6.9S126.93,327.58,124.94,327.58Z"></path>
          <path class="cls-24" d="M109,310.85C109.39,334.27,78.4,350,78.4,350s-31-15.77-30.61-39.19,25-21.26,30.61-2.61C84,289.59,108.63,287.44,109,310.85Z"></path>
          <ellipse class="cls-12" cx="42.66" cy="343.02" rx="4.19" ry="10.08" transform="translate(-201.62 98.46) rotate(-37.88)"></ellipse>
          <path class="cls-47" d="M107.66,362.7a54.14,54.14,0,1,1-37.72-99c-22.15,10.27-45.68,38.83-14,57,26.42,15.18,15.44,31.55,37.28,33.94C101.21,355.48,105.47,358.82,107.66,362.7Z"></path>
          <path class="cls-50" d="M100.23,366.68a53.6,53.6,0,0,1-21.83,4.6,54.13,54.13,0,0,1-42.08-88.19c-5,10.8-8.8,24.12-2.39,32.31,12.24,15.64,20.54,13.07,32,36C72.92,365.28,88.79,367.27,100.23,366.68Z"></path>
          <path class="cls-49" d="M157.15,290.59c3.78,9.61-27.73,31-70.38,47.8S6.47,361,2.69,351.4"></path>
        </g>
        <path class="cls-51" d="M432.69,299.53c-11,18.26-27.23,33.52-45.08,45.25-36.2-9.22-51.95-51.49-49.16-79.64A167.55,167.55,0,0,1,377.18,253C375.61,295.93,408.81,285.11,432.69,299.53Z"></path>
        <path class="cls-52" d="M209.57,436.73l-1,1.64a42,42,0,0,1-19.71,16.26c-10.17,4.08-21.27,8.71-31.6,13-.9-5.44,8.3-15.36,21.86-23.19C192.13,436.89,204.84,433.83,209.57,436.73Z"></path>
        <path class="cls-53" d="M285.7,170.8l-1,0Z"></path>
        <path class="cls-54" d="M416.31,320.92l-.27.29-1,1c-.59.61-1.18,1.21-1.79,1.82s-1.22,1.21-1.85,1.81l-1,.92c-.77.73-1.57,1.46-2.38,2.21s-1.95,1.73-2.95,2.6c-.6.52-1.2,1-1.82,1.54s-1.46,1.21-2.2,1.81c-1.5,1.21-3,2.41-4.64,3.6-.8.61-1.61,1.2-2.43,1.8q-3.09,2.23-6.42,4.43a85.71,85.71,0,0,1-16-7.27,57.16,57.16,0,0,1-19.13-17.89c-13.07-20.2-14.74-41.12-14-54.48q4.65-2.07,9.13-3.77c-1,16,2.52,40.25,30.74,46C398.76,311.52,410.07,316.65,416.31,320.92Z"></path>
        <path class="cls-55" d="M446.12,264c-5.44,34.14-30.3,62.19-58.5,80.75a85.5,85.5,0,0,1-16-7.27C404.74,322.68,426.85,293.7,446.12,264Z"></path>
      </g>
    </g>
  </g>
</svg>