<?xml version="1.0" standalone="no"?>
<!DOCTYPE svg PUBLIC "-//W3C//DTD SVG 20010904//EN"
 "http://www.w3.org/TR/2001/REC-SVG-20010904/DTD/svg10.dtd">
<svg version="1.0" xmlns="http://www.w3.org/2000/svg"
 width="474.000000pt" height="478.000000pt" viewBox="0 0 474.000000 478.000000"
 preserveAspectRatio="xMidYMid meet">
<g transform="translate(0.000000,478.000000) scale(0.100000,-0.100000)"
fill="#C3073F" stroke="none">
<path d="M2130 4770 c-274 -33 -537 -115 -810 -251 -759 -380 -1241 -1026
-1310 -1756 -19 -204 16 -612 76 -883 69 -308 204 -632 361 -867 231 -345 514
-589 898 -774 341 -164 643 -233 1025 -233 242 -1 355 13 574 68 655 166 1222
628 1545 1258 165 323 239 617 248 984 6 237 -4 315 -53 414 -65 128 -171 190
-328 190 -133 0 -236 -48 -295 -136 -64 -98 -83 -183 -101 -459 -22 -346 -115
-638 -282 -890 -73 -112 -260 -297 -377 -374 -291 -192 -642 -283 -1040 -268
-177 7 -295 28 -452 83 -444 154 -806 501 -953 912 -76 214 -116 432 -116 636
0 218 34 393 111 576 83 195 197 359 369 530 223 223 475 360 806 436 98 22
151 28 296 32 243 6 402 -19 606 -98 195 -75 243 -152 159 -255 -17 -22 -121
-125 -229 -229 -109 -103 -198 -191 -198 -195 0 -3 -43 -50 -95 -104 -170
-175 -233 -179 -403 -25 -114 104 -174 132 -277 133 -68 0 -89 -4 -139 -29
-77 -38 -160 -123 -197 -200 -24 -51 -29 -74 -29 -137 0 -67 4 -85 35 -145 19
-38 66 -104 106 -148 70 -78 109 -142 109 -181 0 -40 -39 -103 -109 -181 -41
-44 -86 -106 -104 -143 -28 -57 -32 -76 -32 -146 0 -69 5 -88 30 -139 37 -72
119 -157 188 -193 45 -24 64 -28 137 -28 109 0 158 19 266 101 109 83 152 104
214 104 60 0 122 -28 195 -89 28 -23 84 -59 124 -79 68 -33 83 -37 155 -37
104 0 169 30 250 115 79 83 111 154 111 250 0 103 -30 164 -132 273 -80 84
-113 136 -113 178 0 60 45 112 352 417 393 389 675 684 728 763 79 116 95 161
95 274 0 86 -3 106 -24 145 -62 118 -173 225 -376 362 -326 220 -654 357
-1000 419 -136 24 -464 34 -595 19z"/>
</g>
</svg>
