<svg xmlns="http://www.w3.org/2000/svg" xmlns:xlink="http://www.w3.org/1999/xlink" viewBox="0 0 620 447.55">
              <defs>
                <style>
                  @keyframes rotate {
                    100% {
                      transform: rotate(360deg);
                    }
                  }
                  @keyframes float-vertical {
                    0% {
                      transform: translate3d(0, 0, 0)
                    }
                    50% {
                      transform: translate3d(0, -15px, 0)
                    }
                    100% {
                      transform: translate3d(0, 0, 0)
                    }
                  }
                  .rotate, .rotate-b {
                    animation: rotate 4s infinite;
                    transform-origin: 50% 50%;
                    transform-box: fill-box;
                  }
                  .bounce, .bounce-b {
                    animation: float-vertical 4s ease-in-out infinite;
                  }

                  .bounce-b, .rotate-b {
                    animation-delay: 500ms;
                  }
                  
                  .cls-1 {
                    isolation: isolate;
                  }

                  .cls-2 {
                    fill: #2d333f;
                  }

                  .cls-11,
                  .cls-3,
                  .cls-46,
                  .cls-47 {
                    fill: #1a1d25;
                  }

                  .cls-4 {
                    fill: #8540ff;
                  }

                  .cls-5 {
                    fill: #cadbe8;
                  }

                  .cls-6 {
                    fill: url(#linear-gradient);
                  }

                  .cls-7 {
                    fill: #733aef;
                  }

                  .cls-8 {
                    fill: #edf4f9;
                  }

                  .cls-9 {
                    fill: #ff3aec;
                  }

                  .cls-10,
                  .cls-27 {
                    fill: #a6bfe2;
                  }

                  .cls-10,
                  .cls-39,
                  .cls-40 {
                    opacity: 0.4;
                  }

                  .cls-10,
                  .cls-11,
                  .cls-16,
                  .cls-25,
                  .cls-27,
                  .cls-30,
                  .cls-31,
                  .cls-35,
                  .cls-36,
                  .cls-39,
                  .cls-40,
                  .cls-46,
                  .cls-47,
                  .cls-48,
                  .cls-49,
                  .cls-50 {
                    mix-blend-mode: multiply;
                  }

                  .cls-11 {
                    opacity: 0.7;
                  }

                  .cls-12 {
                    fill: #6a2fea;
                  }

                  .cls-13 {
                    fill: #feb9a7;
                  }

                  .cls-14 {
                    fill: #5221d8;
                  }

                  .cls-15,
                  .cls-23 {
                    fill: #fff;
                  }

                  .cls-16 {
                    fill: url(#linear-gradient-2);
                  }

                  .cls-17 {
                    fill: #dfe9f2;
                  }

                  .cls-18 {
                    fill: url(#linear-gradient-3);
                  }

                  .cls-19 {
                    fill: url(#linear-gradient-4);
                  }

                  .cls-20 {
                    fill: url(#linear-gradient-5);
                  }

                  .cls-21 {
                    fill: url(#linear-gradient-6);
                  }

                  .cls-22 {
                    fill: #fe8d7e;
                  }

                  .cls-23 {
                    opacity: 0.32;
                    mix-blend-mode: soft-light;
                  }

                  .cls-24 {
                    fill: url(#linear-gradient-7);
                  }

                  .cls-25,
                  .cls-50,
                  .cls-51 {
                    opacity: 0.5;
                  }

                  .cls-25 {
                    fill: url(#linear-gradient-8);
                  }

                  .cls-26 {
                    fill: #a3c1d3;
                  }

                  .cls-27 {
                    opacity: 0.35;
                  }

                  .cls-28 {
                    fill: url(#linear-gradient-9);
                  }

                  .cls-29 {
                    fill: url(#linear-gradient-10);
                  }

                  .cls-30,
                  .cls-31,
                  .cls-35,
                  .cls-36 {
                    opacity: 0.53;
                  }

                  .cls-30 {
                    fill: url(#linear-gradient-11);
                  }

                  .cls-31 {
                    fill: url(#linear-gradient-12);
                  }

                  .cls-32 {
                    fill: none;
                    stroke: #fff;
                    stroke-miterlimit: 10;
                    stroke-width: 3.71px;
                  }

                  .cls-33 {
                    fill: url(#linear-gradient-13);
                  }

                  .cls-34 {
                    fill: url(#linear-gradient-14);
                  }

                  .cls-35 {
                    fill: url(#linear-gradient-15);
                  }

                  .cls-36 {
                    fill: url(#linear-gradient-16);
                  }

                  .cls-37 {
                    fill: url(#linear-gradient-17);
                  }

                  .cls-38 {
                    fill: url(#linear-gradient-18);
                  }

                  .cls-39 {
                    fill: url(#linear-gradient-19);
                  }

                  .cls-40 {
                    fill: url(#linear-gradient-20);
                  }

                  .cls-41 {
                    fill: url(#linear-gradient-21);
                  }

                  .cls-42 {
                    fill: url(#linear-gradient-22);
                  }

                  .cls-43 {
                    fill: url(#linear-gradient-23);
                  }

                  .cls-44 {
                    fill: url(#linear-gradient-24);
                  }

                  .cls-45 {
                    fill: url(#linear-gradient-25);
                  }

                  .cls-46 {
                    opacity: 0.34;
                  }

                  .cls-47 {
                    opacity: 0.43;
                  }

                  .cls-48,
                  .cls-49 {
                    opacity: 0.37;
                  }

                  .cls-48 {
                    fill: url(#linear-gradient-26);
                  }

                  .cls-49 {
                    fill: url(#linear-gradient-27);
                  }

                  .cls-50 {
                    fill: url(#linear-gradient-28);
                  }

                  .cls-51 {
                    fill: url(#linear-gradient-29);
                  }
                </style>
                <linearGradient id="linear-gradient" x1="112.53" y1="204.23" x2="201.1" y2="204.23" gradientUnits="userSpaceOnUse">
                  <stop offset="0" stop-color="#fff" />
                  <stop offset="1" stop-color="#dfe9f2" />
                </linearGradient>
                <linearGradient id="linear-gradient-2" x1="70.32" y1="302.24" x2="114.27" y2="302.24" gradientUnits="userSpaceOnUse">
                  <stop offset="0" stop-color="#dfe9f2" />
                  <stop offset="1" stop-color="#a6bfe2" />
                </linearGradient>
                <linearGradient id="linear-gradient-3" x1="284.08" y1="193.51" x2="306.78" y2="193.51" gradientUnits="userSpaceOnUse">
                  <stop offset="0" stop-color="#fe8d7e" />
                  <stop offset="1" stop-color="#f26f75" />
                </linearGradient>
                <linearGradient id="linear-gradient-4" x1="94.44" y1="159.32" x2="134.99" y2="159.32" xlink:href="#linear-gradient-3" />
                <linearGradient id="linear-gradient-5" x1="128.99" y1="135.92" x2="144.37" y2="135.92" xlink:href="#linear-gradient-3" />
                <linearGradient id="linear-gradient-6" x1="-7865.2" y1="-7595.65" x2="-7868.65" y2="-7578.27" gradientTransform="matrix(-1.45, 0.26, 0.26, 1.45, -9301.17, 13172.99)" xlink:href="#linear-gradient-3" />
                <linearGradient id="linear-gradient-7" x1="145.71" y1="449.74" x2="145.71" y2="250.03" gradientUnits="userSpaceOnUse">
                  <stop offset="0" stop-color="#fff" />
                  <stop offset="1" stop-color="#a6bfe2" />
                </linearGradient>
                <linearGradient id="linear-gradient-8" x1="58.7" y1="404.58" x2="163.18" y2="303.74" xlink:href="#linear-gradient-7" />
                <linearGradient id="linear-gradient-9" x1="634.49" y1="139.8" x2="375.26" y2="338.62" xlink:href="#linear-gradient-7" />
                <linearGradient id="linear-gradient-10" x1="525.72" y1="150.84" x2="525.72" y2="286.25" xlink:href="#linear-gradient-7" />
                <linearGradient id="linear-gradient-11" x1="480.85" y1="204.27" x2="620" y2="204.27" xlink:href="#linear-gradient-2" />
                <linearGradient id="linear-gradient-12" x1="480.85" y1="214.27" x2="595.82" y2="214.27" xlink:href="#linear-gradient-2" />
                <linearGradient id="linear-gradient-13" x1="87.69" y1="315.27" x2="87.69" y2="556.77" xlink:href="#linear-gradient-7" />
                <linearGradient id="linear-gradient-14" x1="113.18" y1="369.28" x2="-0.78" y2="418.21" xlink:href="#linear-gradient-7" />
                <linearGradient id="linear-gradient-15" x1="18.12" y1="390.83" x2="157.27" y2="390.83" xlink:href="#linear-gradient-2" />
                <linearGradient id="linear-gradient-16" x1="18.12" y1="400.83" x2="133.09" y2="400.83" xlink:href="#linear-gradient-2" />
                <linearGradient id="linear-gradient-17" x1="517.96" y1="155.59" x2="517.96" y2="35.48" gradientUnits="userSpaceOnUse">
                  <stop offset="0" stop-color="#f29525" />
                  <stop offset="1" stop-color="#ffea06" />
                </linearGradient>
                <linearGradient id="linear-gradient-18" x1="517.79" y1="107.19" x2="517.79" y2="132.37" gradientUnits="userSpaceOnUse">
                  <stop offset="0" stop-color="#2d333f" />
                  <stop offset="1" stop-color="#3d4654" />
                </linearGradient>
                <linearGradient id="linear-gradient-19" x1="489.65" y1="86.67" x2="537.97" y2="86.67" xlink:href="#linear-gradient-17" />
                <linearGradient id="linear-gradient-20" x1="489.65" y1="90.87" x2="533.89" y2="90.87" xlink:href="#linear-gradient-17" />
                <linearGradient id="linear-gradient-21" x1="421.71" y1="257.44" x2="462.25" y2="257.44" xlink:href="#linear-gradient-3" />
                <linearGradient id="linear-gradient-22" x1="424.83" y1="188.73" x2="452.14" y2="188.73" xlink:href="#linear-gradient-3" />
                <linearGradient id="linear-gradient-23" x1="-7909.83" y1="-7580.77" x2="-7913.28" y2="-7563.39" gradientTransform="matrix(1.26, 0.76, -0.76, 1.26, 4658.09, 15787.98)" xlink:href="#linear-gradient-3" />
                <linearGradient id="linear-gradient-24" x1="426.44" y1="224.28" x2="441.98" y2="224.28" xlink:href="#linear-gradient-3" />
                <linearGradient id="linear-gradient-25" x1="309.92" y1="276.1" x2="345.28" y2="276.1" xlink:href="#linear-gradient-3" />
                <linearGradient id="linear-gradient-26" x1="200.17" y1="217.22" x2="135.13" y2="333.06" xlink:href="#linear-gradient-2" />
                <linearGradient id="linear-gradient-27" x1="183.73" y1="223.84" x2="125.9" y2="326.84" xlink:href="#linear-gradient-2" />
                <linearGradient id="linear-gradient-28" x1="310.15" y1="351.96" x2="411.54" y2="351.96" xlink:href="#linear-gradient-2" />
                <linearGradient id="linear-gradient-29" x1="310.15" y1="340.61" x2="355.18" y2="340.61" xlink:href="#linear-gradient-2" />
              </defs>
              <g class="cls-1">
                <g id="Layer_2" data-name="Layer 2">
                  <g id="Layer_1-2" data-name="Layer 1">
                    <path class="cls-2" d="M576.51,247.38c-5.84,59.67-28.88,143.05-98.08,154.44-22.69,3.74-45-1.13-66.89-8.81-16.89-5.94-33.54-13.55-50-20.19q-3.17-1.29-6.39-2.51c-11-4.17-22.34-7.59-33.92-8.19-2.15-.12-4.29-.13-6.45,0-12.77.57-24.41,4.76-35.55,10.66-22.4,11.85-42.82,30.58-66.52,40.51a105.57,105.57,0,0,1-82.55-.84c-9.7-4.31-18.69-10.07-27.48-16-16.5-11.19-32.62-23.31-45.35-38.64a93.32,93.32,0,0,1-9.57-14.09c-7.47-13.28-12.25-27.78-19.18-41.6C-15.85,213.42-16.36,72.59,84,23.61,112.26,9.83,137.58,2.81,160.34.7c106.52-9.86,157.22,88,188.42,107.41,37.87,23.52,140-32.66,194.74-6.2a26.64,26.64,0,0,1,5.66,3.87C583.33,134.86,580.35,208.18,576.51,247.38Z" />
                    <path class="cls-3" d="M279.26,372.74c-15.09,8-29.28,19.09-44.19,28.52a152.75,152.75,0,0,1-22.33,12,105.57,105.57,0,0,1-82.55-.85c-9.7-4.3-18.69-10.06-27.48-16-16.5-11.18-32.62-23.31-45.35-38.63a93.32,93.32,0,0,1-9.57-14.09C40.32,330.36,35.55,315.86,28.61,302-12.24,220.61-16,95.11,61.55,37.29A140.25,140.25,0,0,1,84,23.6C112.26,9.83,137.58,2.81,160.34.7,133.5,81.45,95.18,271,279.26,372.74Z" />
                    <path class="cls-4" d="M490.4,48.34v15H112.53v-15a9.28,9.28,0,0,1,9.28-9.27H481.13A9.27,9.27,0,0,1,490.4,48.34Z" />
                    <path class="cls-5" d="M490.4,63.39v272.4a9.28,9.28,0,0,1-9.27,9.28H121.81a9.29,9.29,0,0,1-9.28-9.28V63.39Z" />
                    <path class="cls-6" d="M201.1,63.39V345.07H121.81a9.29,9.29,0,0,1-9.28-9.28V63.39Z" />
                    <circle class="cls-7" cx="434.58" cy="51.23" r="5.17" />
                    <circle class="cls-7" cx="455.27" cy="51.23" r="5.17" />
                    <circle class="cls-7" cx="475.95" cy="51.23" r="5.17" />
                    <circle class="cls-5" cx="156.82" cy="110.21" r="27.83" />
                    <circle class="cls-5" cx="138.73" cy="156.59" r="5.57" />
                    <rect class="cls-8" x="148.93" y="155.67" width="31.54" height="1.86" />
                    <circle class="cls-5" cx="138.73" cy="178.86" r="5.57" />
                    <rect class="cls-8" x="148.93" y="177.93" width="31.54" height="1.86" />
                    <circle class="cls-5" cx="138.73" cy="201.12" r="5.57" />
                    <rect class="cls-8" x="148.93" y="200.19" width="31.54" height="1.86" />
                    <circle class="cls-5" cx="138.73" cy="223.38" r="5.57" />
                    <rect class="cls-8" x="148.93" y="222.46" width="31.54" height="1.86" />
                    <circle class="cls-5" cx="138.73" cy="245.65" r="5.57" />
                    <rect class="cls-8" x="148.93" y="244.72" width="31.54" height="1.86" />
                    <circle class="cls-5" cx="138.73" cy="267.91" r="5.57" />
                    <rect class="cls-8" x="148.93" y="266.98" width="31.54" height="1.86" />
                    <circle class="cls-5" cx="138.73" cy="290.17" r="5.57" />
                    <rect class="cls-8" x="148.93" y="289.25" width="31.54" height="1.86" />
                    <circle class="cls-5" cx="138.73" cy="312.44" r="5.57" />
                    <rect class="cls-8" x="148.93" y="311.51" width="31.54" height="1.86" />
                    <rect class="cls-8" x="405.18" y="81.94" width="59.04" height="66.67" />
                    <rect class="cls-8" x="405.18" y="157.89" width="66.67" height="4.64" />
                    <rect class="cls-8" x="405.18" y="169.48" width="66.67" height="4.64" />
                    <rect class="cls-8" x="405.18" y="181.08" width="29.56" height="4.64" />
                    <rect class="cls-8" x="405.18" y="204.27" width="66.67" height="66.67" />
                    <rect class="cls-8" x="405.18" y="280.22" width="66.67" height="4.64" />
                    <rect class="cls-8" x="405.18" y="291.81" width="66.67" height="4.64" />
                    <rect class="cls-8" x="405.18" y="303.41" width="29.56" height="4.64" />
                    <rect class="cls-8" x="219.65" y="280.22" width="166.97" height="4.64" />
                    <rect class="cls-8" x="219.65" y="254.71" width="83.49" height="16.23" />
                    <rect class="cls-8" x="219.65" y="291.81" width="166.97" height="4.64" />
                    <rect class="cls-8" x="219.65" y="303.41" width="83.49" height="4.64" />
                    <rect class="cls-8" x="219.65" y="81.94" width="166.97" height="166.97" />
                    <polygon class="cls-4" points="266.19 241 266.19 248.92 386.63 248.92 386.63 194.97 349.55 157.89 266.43 241 266.19 241" />
                    <polygon class="cls-9" points="386.63 237.93 386.63 248.92 219.65 248.92 219.65 174.12 271.06 122.71 386.29 237.93 386.63 237.93" />
                    <circle class="cls-9" cx="326.41" cy="122.71" r="15.33" />
                    <path class="cls-10" d="M490.4,279.52v56.27a9.28,9.28,0,0,1-9.27,9.28H121.81a9.29,9.29,0,0,1-9.28-9.28V48.34a9.28,9.28,0,0,1,9.28-9.27h72.67c.55,7.81,1.32,16,2.42,24.32,9.84,75,22.12,220.77,128.75,189C421.71,223.68,476.58,252.34,490.4,279.52Z" />
                    <path class="cls-10" d="M385.32,345.07H121.81a9.29,9.29,0,0,1-9.28-9.28V48.34a9.28,9.28,0,0,1,9.28-9.27h7.05c.26,5.74.73,14.12,1.59,24.32,5.68,67.35,28.16,214.53,116.09,214.19C353.69,277.16,377.58,294.22,385.32,345.07Z" />
                    <path class="cls-11" d="M235.07,401.26a152.75,152.75,0,0,1-22.33,12,105.57,105.57,0,0,1-82.55-.85c-9.7-4.3-18.69-10.06-27.48-16-16.5-11.18-32.62-23.31-45.35-38.63a93.32,93.32,0,0,1-9.57-14.09C40.32,330.36,35.55,315.86,28.61,302-12.24,220.61-16,95.11,61.55,37.29,45.82,123.33,30.34,333.64,235.07,401.26Z" />
                    <path class="cls-4" d="M189.18,308S191,204.4,176.84,187.21s-64.09-25.45-93-17.51-45.38,28.2-45.38,28.2L60,308Z" />
                    <path class="cls-12" d="M72,208s20.75,45.17,39.93,40.69c31-7.24,94.14-18.23,85.32,27L84.49,310.27,52.9,270.94,42.33,217.82Z" />
                    <polygon class="cls-13" points="76.68 269.66 170.27 265.16 170.26 295.74 70.32 305.01 76.68 269.66" />
                    <path class="cls-14" d="M64.74,232.07s14.77,25.67,41.88,24.79,33.95,16.62,33.95,16.62-56.65,3.44-57.53,4.1-18.3-9.67-18.3-9.67Z" />
                    <path class="cls-4" d="M156.64,262.73l-.55,15.07-.94,26.26S91,305.48,70.31,305a22.55,22.55,0,0,1-11.9-3.61,1.21,1.21,0,0,1-.2-.14c-4.94-3.17-9.57-9.21-13-19-12.35-35.34-15-55.2-12.54-71.55h0c.15-1,.32-2,.5-2.9,3.21-16.46,32.21-29.26,37.71-4.12,0,0,8.89,34.56,13.59,59.68Z" />
                    <path class="cls-4" d="M178.39,188.82s35.71,45.54,45.91,64.24-10.81,47.07-37.85,18-37.15-46.52-40.94-63.35C141.84,191.38,163.25,168,178.39,188.82Z" />
                    <path class="cls-13" d="M290.22,200.77l-5.44,6.46-59.19,70.35L205.29,248,268.74,179l.22.23,15.5,15.7Z" />
                    <path class="cls-4" d="M285.3,217.31s-44.68,46.12-59.71,60.27c-17.09,16.11-47.29-1.25-32.26-25.11a44.12,44.12,0,0,1,6.76-8.15l57.24-57.47,12.79,13.92Z" />
                    <path class="cls-12" d="M285.3,217.31s-44.68,46.12-59.71,60.27c-17.09,16.11-47.29-1.25-32.26-25.11,8.82-6.05,20.13-10.29,31-12.38,25.2-4.86,40.21-28.64,45.79-39.32Z" />
                    <path class="cls-12" d="M156.09,277.8l-.94,26.26-9.64.2c-18.72.37-59.52,1.1-75.2.74a22.55,22.55,0,0,1-11.9-3.61,1.21,1.21,0,0,1-.2-.14c-4.94-3.17-9.57-9.21-13-19-2.12-6.07-4-11.68-5.53-16.89-7.59-25.16-9.09-41.12-7-54.66.09,1.12,6,72.9,56.83,69.53C115.25,278.5,138.84,276.14,156.09,277.8Z" />
                    <path class="cls-14" d="M145.51,304.26c-18.72.37-59.52,1.1-75.2.74a22.55,22.55,0,0,1-11.9-3.61,1.21,1.21,0,0,1-.2-.14c-4.94-3.17-9.57-9.21-13-19-2.12-6.07-4-11.68-5.53-16.89,9,13.15,23.33,28.43,40.16,27C107.86,290,142.6,274.07,145.51,304.26Z" />
                    <path class="cls-15" d="M73.29,301.26l41-4.73V308H73.68a3.35,3.35,0,0,1-3.36-3.36h0A3.37,3.37,0,0,1,73.29,301.26Z" />
                    <path class="cls-16" d="M73.29,301.26l41-4.73V308H73.68a3.35,3.35,0,0,1-3.36-3.36h0A3.37,3.37,0,0,1,73.29,301.26Z" />
                    <path class="cls-15" d="M246.41,221.5l-16.09,66.62-2,8.14-1.11,4.61a9.28,9.28,0,0,1-9,7.1H108.29a4.65,4.65,0,0,1-4.51-5.73L123,222.87a9.26,9.26,0,0,1,8.3-7.07c.24,0,.47,0,.71,0H241.9A4.64,4.64,0,0,1,246.41,221.5Z" />
                    <ellipse class="cls-17" cx="175.1" cy="261.86" rx="11.61" ry="8.89" transform="translate(-137.28 221.21) rotate(-48.82)" />
                    <path class="cls-13" d="M123.48,192.57c-24-1.77-29-25.08-29-25.08L108.06,126l4.63,3,14.87,9.57a147.87,147.87,0,0,0-1.17,18.11c.06,2.46,2.38,7.42,4.59,12.88C135.47,180.6,139.53,193.76,123.48,192.57Z" />
                    <path class="cls-13" d="M314.11,185.44c-.28.66-3.42,3.05-7.33,5.77-6.76,4.68-15.83,10.3-16.56,9.56a57.62,57.62,0,0,1-5.81-5.46c-5.81-5.87-14-14.54-15.45-16.07l-.22-.23s7.87-14.86,13.57-18.62S307.53,146.17,309.8,146s2.21,6.39-.95,9.4-5.55,5.07-5.55,5.07,4.21,1.86,4,4.18l-.22,2.33s5.77,4.41,5.65,6.52a8.72,8.72,0,0,1-1.27,3.83S314.88,183.66,314.11,185.44Z" />
                    <path class="cls-18" d="M306.78,191.21c-6.76,4.68-15.83,10.3-16.56,9.56l-5.44,6.46a35.49,35.49,0,0,1-.37-11.92c0-.12,0-.24,0-.37a58.38,58.38,0,0,1,2.9-12l17.3-3.19Z" />
                    <path class="cls-15" d="M337.47,208.05c-34.57,1.67-45.7.95-45.7.95s-1.14-5.3-2.2-13.35A199.59,199.59,0,0,1,287.82,172c-.15-14.39,1.59-30,8.12-40.78,21.72,8.56,37.21,12.91,37.21,12.91S326.06,194.76,337.47,208.05Z" />
                    <path class="cls-17" d="M306.05,167.55l-16.48,28.1A199.59,199.59,0,0,1,287.82,172l3.13-6.58,13.89-2.61Z" />
                    <path class="cls-13" d="M276.09,184.86s8.49,1.83,11.28-1.88a22,22,0,0,0,3.53-6.34s13.16-7.71,15.16-9.1,2.06-6.26-.07-6.6-19.71,4.37-22.69,6-12.49,8.41-12.49,8.41Z" />
                    <path class="cls-13" d="M134.22,151.57c-21.41.75-28.53-35.74-28.53-35.74S100.17,95.29,104.46,88c3.8-5.33,19.15-11.58,31.35-10,7.27,1,13.43,4.69,15.35,13,.67,3,1.56,7.58,2.21,13C155.65,122.75,155.21,150.84,134.22,151.57Z" />
                    <path class="cls-19" d="M123.48,192.57c-24-1.77-29-25.08-29-25.08L108.06,126l4.63,3,5,7s-16.7,18.5-9.43,29.51c7.5,11.36,16-3.27,22.71,4.09C135.47,180.6,139.53,193.76,123.48,192.57Z" />
                    <path class="cls-3" d="M160,99a17.43,17.43,0,0,1-5.07,6.38l0,0a9.5,9.5,0,0,1-1.26.81h0c-.07-.39-1.89-12.43-2-13.13s-10.34,21.76-30.3,7c-6.53-4-11.85,2.51-8.47,10.89,0,0,10.29,19.4,11.37,20.1s3.78-3.09,6.07-2.6,17,3.93,17.86,4.53,1.13,4.51,3.67,4.06c0,4.52-3.52,15.65-11.87,17.1s-19.42-3.26-23.38-6.39c-9-7.16-11-20.93-11-20.93s-11-3.53-13.91-14.3A65.16,65.16,0,0,1,89.51,97h0c-.1-6.44.95-12.06,3.59-14.15,2.54-2.3,6.78-.72,6.78-.72s12.46-19.73,36.42-16.7S162.67,93.53,160,99Z" />
                    <path class="cls-20" d="M144.37,134.72l-15.15-3.94s-2,8.63,5.76,10.09S144.37,134.72,144.37,134.72Z" />
                    <path class="cls-13" d="M113.09,123.42s-2.75-16.15-12.1-15.36-2.22,19,3.94,22.27a7.83,7.83,0,0,0,5.57.39,4.08,4.08,0,0,0,2.89-4.38Z" />
                    <path class="cls-21" d="M102.07,114.51c.56-.57,4.32,1.35,6,5.21s1.16,5.29,0,6.26-3.68-.12-2.71-2.63C107.11,118.83,101.52,115.09,102.07,114.51Z" />
                    <path class="cls-22" d="M142.43,118.78c.41,1.44.73,2.85,1.18,4.19a15.11,15.11,0,0,0,.74,2,6.35,6.35,0,0,0,1,1.61l.45.47-.36.4a2.71,2.71,0,0,1-.46.44,2.13,2.13,0,0,1-.52.23,3.82,3.82,0,0,1-1,.13,6.86,6.86,0,0,1-1.68-.3,10.8,10.8,0,0,1-2.91-1.43c1.07.17,2.1.37,3.1.47a8.89,8.89,0,0,0,1.45,0,1.21,1.21,0,0,0,.88-.34l.09.87a5.78,5.78,0,0,1-1.35-2,10.4,10.4,0,0,1-.64-2.22A13.16,13.16,0,0,1,142.43,118.78Z" />
                    <path class="cls-23" d="M160,99a17.43,17.43,0,0,1-5.07,6.38l0,0-1.26.81h0c.12-.65,6.28-33.38-22.1-33.38-28.66,0-26.46,18.4-35,16.69-3.75-.74-5.83,3-7,7.53-.1-6.44.95-12.06,3.59-14.15,2.54-2.3,6.78-.72,6.78-.72s12.46-19.73,36.42-16.7S162.67,93.53,160,99Z" />
                    <rect class="cls-24" x="45.99" y="307.96" width="199.44" height="74.21" rx="9.28" />
                    <circle class="cls-15" cx="206.93" cy="345.07" r="23.19" />
                    <circle class="cls-15" cx="145.71" cy="345.07" r="23.19" />
                    <circle class="cls-15" cx="84.49" cy="345.07" r="23.19" />
                    <path class="cls-25" d="M166.54,353.73v28.44H55.27A9.27,9.27,0,0,1,46,372.9V335.18H148A18.57,18.57,0,0,1,166.54,353.73Z" />
                    <path class="cls-26" d="M84.49,358.13a2.67,2.67,0,0,1-1.66-.57c-2.92-2.25-9.91-7.88-11.68-11.31-2.33-4.53-.92-10.35,3.14-13a8.19,8.19,0,0,1,10.2,1.17,8.15,8.15,0,0,1,10.18-1.17h0c4.06,2.63,5.47,8.45,3.14,13-1.7,3.3-8,8.5-11.68,11.31A2.68,2.68,0,0,1,84.49,358.13Zm-5.83-23.8a5.69,5.69,0,0,0-3.08.93,7.75,7.75,0,0,0-2.33,9.9c1.27,2.46,6.53,7,11,10.53h.41c5.83-4.51,10-8.45,11-10.53a7.75,7.75,0,0,0-2.33-9.9h0a5.84,5.84,0,0,0-7.94,1.7l-1,1.33-1-1.33A6,6,0,0,0,78.66,334.33Z" />
                    <path class="cls-26" d="M145.65,357.34a12.63,12.63,0,0,1-3-.36,13.27,13.27,0,0,1-8.84-8.67A12.32,12.32,0,0,1,149,333.22a12,12,0,0,1,8.54,8.74,12.4,12.4,0,0,1-.88,8.53l1.26,4.71a1.58,1.58,0,0,1-.25,1.34,1.65,1.65,0,0,1-1.18.63h-.18l-4.93-1.3A11.74,11.74,0,0,1,145.65,357.34Zm0-22.19a9.81,9.81,0,0,0-7.81,3.83,10,10,0,0,0-1.73,8.74,11,11,0,0,0,7.1,7,10,10,0,0,0,7.13-.9,2.21,2.21,0,0,1,1.65-.2l3.27.87-.92-3.41a2.32,2.32,0,0,1,.17-1.57,10.06,10.06,0,0,0,.72-7,9.62,9.62,0,0,0-6.84-7A10.63,10.63,0,0,0,145.68,335.15Z" />
                    <path class="cls-26" d="M207,356.89a2,2,0,0,1-.35,0,1.72,1.72,0,0,1-1.38-1.39l-2.15-11.79-8.67-7.37a1.72,1.72,0,0,1-.51-1.93,1.76,1.76,0,0,1,1.64-1.14h22.81a1.76,1.76,0,0,1,1.51.87,1.74,1.74,0,0,1,0,1.74L208.45,356A1.69,1.69,0,0,1,207,356.89Zm-.56-2.05v0Zm-9.16-19.23,8,6.82,2,10.91,10-17.73Zm20.56-.93Zm-21.87-.18h0Z" />
                    <rect class="cls-26" x="203.04" y="337.74" width="16.9" height="2.37" transform="translate(-140.97 150.86) rotate(-29.95)" />
                    <path class="cls-27" d="M490.4,148.61V259.93h-.27a18.57,18.57,0,0,1-18.55-18.55V167.16a18.57,18.57,0,0,1,18.55-18.55Z" />
                    <path class="cls-28" d="M620,167.17v74.21a9.28,9.28,0,0,1-9.28,9.28H490.13a9.29,9.29,0,0,1-9.28-9.28V167.17a9.29,9.29,0,0,1,9.28-9.28H610.72A9.28,9.28,0,0,1,620,167.17Z" />
                    <g class="rotate">
                      <path xmlns="http://www.w3.org/2000/svg" class="cls-4" d="M561.3,204.27H525.71V168.69A35.58,35.58,0,0,1,561.3,204.27Z"/>
                      <path xmlns="http://www.w3.org/2000/svg" class="cls-29" d="M561.3,204.27a35.58,35.58,0,1,1-35.59-35.58v35.58Z"/>
                    </g>
                    <circle class="cls-15" cx="525.72" cy="204.27" r="14.36" />
                    <path class="cls-30" d="M620,220.06v21.32a9.28,9.28,0,0,1-9.28,9.28H490.13a9.29,9.29,0,0,1-9.28-9.28V167.17a9.29,9.29,0,0,1,9.28-9.28h30.1c5.12,19.94,20.61,49.2,67.3,51.4C601.55,210,612.1,214,620,220.06Z" />
                    <path class="cls-31" d="M595.82,250.66H490.13a9.29,9.29,0,0,1-9.28-9.28v-63.5c7.75,25.36,27.53,57.18,77.82,59.8C574.51,238.51,586.61,243.34,595.82,250.66Z" />
                    <line class="cls-32" x1="571.44" y1="187.01" x2="603.63" y2="187.01" />
                    <line class="cls-32" x1="571.44" y1="204.27" x2="587.53" y2="204.27" />
                    <line class="cls-32" x1="571.44" y1="221.53" x2="603.63" y2="221.53" />
                    <rect class="cls-33" x="18.12" y="344.45" width="139.15" height="92.76" rx="9.28" />
                    <g class="rotate-b">
                      <path class="cls-34" d="M98.56,390.83A35.58,35.58,0,1,1,63,355.25v35.58Z" />
                      <path class="cls-4" d="M98.56,390.83H63V355.25A35.59,35.59,0,0,1,98.56,390.83Z" />
                    </g>
                    <line class="cls-32" x1="108.7" y1="373.57" x2="140.89" y2="373.57" />
                    <line class="cls-32" x1="108.7" y1="390.83" x2="124.8" y2="390.83" />
                    <line class="cls-32" x1="108.7" y1="408.1" x2="140.89" y2="408.1" />
                    <circle class="cls-15" cx="62.98" cy="390.83" r="14.36" />
                    <path class="cls-35" d="M157.27,406.62v21.32a9.28,9.28,0,0,1-9.28,9.28H27.4a9.29,9.29,0,0,1-9.28-9.28V353.73a9.29,9.29,0,0,1,9.28-9.28H57.5c5.12,19.94,20.61,49.2,67.3,51.4C138.82,396.51,149.37,400.55,157.27,406.62Z" />
                    <path class="cls-36" d="M133.09,437.22H27.4a9.29,9.29,0,0,1-9.28-9.28v-63.5c7.75,25.36,27.53,57.18,77.82,59.8C111.78,425.07,123.88,429.9,133.09,437.22Z" />
                    <path class="cls-27" d="M490.4,65.12v92.77h-.27a18.57,18.57,0,0,1-18.55-18.55V83.68a18.58,18.58,0,0,1,18.55-18.56Z" />
                    <rect class="cls-17" x="480.86" y="74.4" width="74.21" height="74.21" rx="9.28" />
                    <path class="cls-4" d="M368.32,394s-2.62-94.48,11.53-111.67,64.09-25.45,93-17.51S518.26,293,518.26,293l-32.72,107.1Z" />
                    <path class="cls-13" d="M462.25,262.63s-5.08,23.32-29,25.08c-16.56,1.23-11.7-12.85-7.06-24.13,2.06-5,4.1-9.5,4.15-11.81a148,148,0,0,0-1.17-18.1l6.42-1.51,21.64-5.06Z" />
                    <path class="cls-41" d="M462.25,262.63s-5.08,23.32-29,25.08c-16.56,1.23-11.7-12.85-7.06-24.13a46.18,46.18,0,0,1,15.79-2.47c12.1-.1,13.47-18.34,3.71-21.26-7.35-2.19-9.68-5.16-10.1-7.69l21.64-5.06Z" />
                    <path class="cls-13" d="M465.39,217.65S445.71,249.2,426,240.85c-19.18-8.11-9.9-34.11-1.15-50.81a129.49,129.49,0,0,1,6.93-11.77,15.58,15.58,0,0,1,11-7.2c13.94-2,31.73,13.24,33.75,21C477.88,200.43,465.39,217.65,465.39,217.65Z" />
                    <path class="cls-42" d="M452.14,183.4l-4.14,23c-16.31.18-21.61-8.75-23.17-16.35a129.49,129.49,0,0,1,6.93-11.77,15.58,15.58,0,0,1,11-7.2Z" />
                    <path class="cls-3" d="M491.29,200.92c.07,3.93-2.2,8-5.37,11.59-5.19,5.86-12.81,10.47-16.67,11.17-1-.08-6.82-6.28-6.82-6.28s-4.07-7.23,1.78-13c-23.56,6.18-35.83-1.33-34.5-22.9C424.84,190,420,200.38,420,200.38s-16.72-14.52-6.74-30.5,27.4-10.16,27.4-10.16-2-15.25,10.71-16.15S467,169.16,467,169.16s6.35-6.81,14-3.78,2.72,27.19,2.72,27.19S491.11,190.57,491.29,200.92Z" />
                    <path class="cls-13" d="M455.76,222.1s8.34-14.11,16.79-10-4.68,18.5-11.63,19.4c-5,.39-7.77-4.18-7.77-4.18Z" />
                    <path class="cls-43" d="M469.24,217.71c-.31-.74-4.52-.29-7.43,2.74s-3,4.52-2.26,5.84,3.48,1.19,3.47-1.5C463,219.94,469.55,218.44,469.24,217.71Z" />
                    <path class="cls-22" d="M428.72,209.29a15.65,15.65,0,0,1-.75,2.08,16.09,16.09,0,0,1-1,2,10.36,10.36,0,0,1-1.39,1.79,5.82,5.82,0,0,1-1.91,1.38l.26-.52a1.45,1.45,0,0,0,.84.76,8.74,8.74,0,0,0,1.42.46,30.63,30.63,0,0,0,3.09.51,12.67,12.67,0,0,1-3.2.13,6.36,6.36,0,0,1-1.62-.35,2.08,2.08,0,0,1-1.4-1.3l-.1-.35.36-.17a6.09,6.09,0,0,0,1.62-1.19,13.46,13.46,0,0,0,1.38-1.6C427.15,211.76,427.94,210.54,428.72,209.29Z" />
                    <path class="cls-44" d="M426.44,221.7l15.5-2.09s1,8.81-6.93,9.32S426.44,221.7,426.44,221.7Z" />
                    <path class="cls-12" d="M484.65,303.41s-2.25,36.22-34,32.2-74.32-2.76-73.08,29.67l68,20.09,49.59-17.11,14.88-33.58L502,310.27Z" />
                    <path class="cls-14" d="M477.11,332.45s-3.48,19.42-20,17.6c-30.12-3.32-52.09-4.8-51.92,10.25s63.16,7.11,63.16,7.11,20.5.66,21-2,1.06-26.12,1.06-26.12Z" />
                    <path class="cls-4" d="M511.48,377.38c-3.42,9.78-8,15.81-13,19a1.25,1.25,0,0,1-.24.16,22.65,22.65,0,0,1-11.9,3.62c-20.64.47-84.84-1-84.84-1l-1.13-31.39-.36-9.92,72.17.6c4.7-25.11,13.59-59.67,13.59-59.67,4.95-22.59,28.85-14.56,36-.77a18,18,0,0,1,1.74,4.87C526.81,319.85,524.58,339.93,511.48,377.38Z" />
                    <path class="cls-4" d="M378.3,284s-35.71,45.54-45.91,64.24,10.81,47.07,37.85,18,37.15-46.52,40.94-63.35C414.86,286.52,393.44,263.14,378.3,284Z" />
                    <path class="cls-13" d="M362.22,346.72,330.74,364l-18.27-77.6-2.55-10.83-2.18-9.28,29-9.72h0l8.55,30.24Z" />
                    <path class="cls-45" d="M345.28,286.79c-7.76,3-21.56,8.45-21.32,8.86-.34-.31-5.95-4.82-11.49-9.26l-2.55-10.83c12.21-5.18,26.37-18.58,26.8-19h0Z" />
                    <path class="cls-4" d="M368.51,345.82,343.37,268.7l-38.71,14.57s19.06,61.31,26.08,80.72C339.61,388.54,381.57,383.52,368.51,345.82Z" />
                    <path class="cls-12" d="M517.69,358.19c-1.71,5.86-3.77,12.22-6.21,19.19-3.42,9.78-8,15.81-13,19a1.25,1.25,0,0,1-.24.16,22.65,22.65,0,0,1-11.9,3.62c-13.6.31-46.09-.2-66.68-.59-10.68-.2-18.16-.37-18.16-.37l-1.13-31.39c18.49-4.44,52.24,4.39,80.45,5.42,41.6,1.51,40.92-75.18,40.92-75.18a18,18,0,0,1,1.74,4.87C526.2,316.7,525.22,332.57,517.69,358.19Z" />
                    <path class="cls-14" d="M517.69,358.19c-1.71,5.86-3.77,12.22-6.21,19.19-3.42,9.78-8,15.81-13,19a1.25,1.25,0,0,1-.24.16,22.65,22.65,0,0,1-11.9,3.62c-13.6.31-46.09-.2-66.68-.59L441,386.25s39.89,11.68,52.46-.88C500.35,378.49,508,366.62,517.69,358.19Z" />
                    <path class="cls-15" d="M448.4,403.11H338.46a9.27,9.27,0,0,1-9-7.1l-19.17-79.37a4.64,4.64,0,0,1,4.51-5.73H424.72a9.27,9.27,0,0,1,9,7.1l19.16,79.37A4.63,4.63,0,0,1,448.4,403.11Z" />
                    <ellipse class="cls-17" cx="381.59" cy="357" rx="8.89" ry="11.61" transform="translate(-140.67 339.6) rotate(-41.18)" />
                    <path class="cls-15" d="M483.4,396.41l-41-4.74v12.52H483c1.85,0,3.36-2.59,3.36-4.45h0A3.35,3.35,0,0,0,483.4,396.41Z" />
                    <path class="cls-13" d="M336.73,256.55s-.31-16.81-3.7-22.73-16.09-24.07-18-25.28-4.85,4.71-3.39,8.83,2.66,7,2.66,7-4.59-.24-5.44,1.94L308,228.5s-7.14,1.34-8,3.27a8.63,8.63,0,0,0-.61,4s-5.93,4.12-6.05,6.05,12.83,25,14.4,24.48C309.82,266.29,336.73,256.55,336.73,256.55Z" />
                    <path class="cls-13" d="M325.65,252.34s-5.72-6.53-3.83-10.77a22,22,0,0,1,3.83-6.17s.36-15.24.6-17.66,4.48-4.84,5.81-3.15,5.74,19.36,5.78,22.75-1.29,15-1.29,15Z" />
                    <path class="cls-13" d="M320.24,246.53c-3,1.69-6.81-2.66-6.81-2.66s1.94,8.59-2.3,8.47c-2.91-.08-6.08-4.38-6.05-4.26-.43,1.42,1.66,10.2-1.7,9.16a3.49,3.49,0,0,1-1.68-1.37c-3.52-4.79-7.61-11.1-8.16-13.26,0,0,0,0,0,0-.13-.49-.19-.76-.19-.76.12-1.94,6.05-6,6.05-6a8.74,8.74,0,0,1,.6-4c.86-1.94,8-3.27,8-3.27l.85-2.18c.85-2.18,5.45-1.93,5.45-1.93S323.26,244.84,320.24,246.53Z" />
                    <path class="cls-23" d="M488.68,203.41c2.28-8.56-8.6-9.09-8.6-9.09s6.78-24.64-1-25.63-13.39,5.46-13.39,5.46-5.43-25.54-13.56-26.29-11.49,11.86-11.49,11.86-2-15.25,10.71-16.15S467,169.16,467,169.16s6.35-6.81,14-3.78,2.72,27.19,2.72,27.19,7.44-2,7.62,8.35c.07,3.93-2.2,8-5.37,11.59C487,209.27,488,206,488.68,203.41Z" />
                    <path class="cls-2" d="M236.38,432.46c-2.8-13.43,27.1-49,70.18-54.78s93.34,10.07,99.65,32.43-53.67,31.46-93.36,34.36S240.74,453.37,236.38,432.46Z" />
                    <path class="cls-46" d="M360.81,438.31a415.5,415.5,0,0,1-48,6.12c-39.68,2.9-72.11,8.89-76.46-12-2.8-13.43,27.1-49,70.18-54.78a136.42,136.42,0,0,1,14.91-1.16C323,393.34,330.4,421.21,360.81,438.31Z" />
                    <path class="cls-47" d="M303.3,445.19c-35.24,2.94-62.92,6.42-66.92-12.77-2.35-11.25,18.26-38,50.35-49.84C284.62,399,284.58,426.68,303.3,445.19Z" />
                    <path class="cls-48" d="M228.35,296.26l-1.11,4.61a9.28,9.28,0,0,1-9,7.1H108.29a4.65,4.65,0,0,1-4.51-5.73L123,222.87a9.27,9.27,0,0,1,9-7.1h22.71C159.49,237.26,175.6,280.71,228.35,296.26Z" />
                    <path class="cls-49" d="M198.22,308H108.29a4.65,4.65,0,0,1-4.51-5.73L123,222.87a9.26,9.26,0,0,1,8.3-7.07C136.62,239.64,153.14,291,198.22,308Z" />
                    <path class="cls-50" d="M411.54,393c-16.89-5.94-33.54-13.55-50-20.19-12.94-5.24-26.47-10-40.31-10.7l-11-45.48a4.64,4.64,0,0,1,4.51-5.73H361.5C365.66,330.64,377.77,368.66,411.54,393Z" />
                    <path class="cls-51" d="M355.18,370.31c-11-4.17-22.34-7.59-33.92-8.19l-11-45.48a4.64,4.64,0,0,1,4.51-5.73h16.07C332.94,326.54,338.81,350.36,355.18,370.31Z" />
                    <g class="bounce">
                      <path xmlns="http://www.w3.org/2000/svg" class="cls-37" d="M538,103.68l-.25.25a13.74,13.74,0,0,0-3.83,7,14,14,0,0,0-.33,3v2.69H502v-3.32a13.88,13.88,0,0,0-4.15-9.75,28.31,28.31,0,1,1,40.11.09Z"/>
                      <path xmlns="http://www.w3.org/2000/svg" class="cls-39" d="M538,103.68l-.25.25a14,14,0,0,0-4.16,10v2.69H502v-3.32a13.88,13.88,0,0,0-4.15-9.75,28.33,28.33,0,0,1,11.45-46.91C508.86,74.25,513.62,96.12,538,103.68Z"/>
                      <path xmlns="http://www.w3.org/2000/svg" class="cls-40" d="M533.89,110.93a14,14,0,0,0-.33,3v2.69H502v-3.32a13.88,13.88,0,0,0-4.15-9.75,28.32,28.32,0,0,1-1.27-38.51C497.19,82.64,503.89,105.8,533.89,110.93Z"/>
                      <path xmlns="http://www.w3.org/2000/svg" class="cls-38" d="M530.76,134.92H504.82a2.8,2.8,0,0,1-2.8-2.8V116.66h31.54v15.46A2.8,2.8,0,0,1,530.76,134.92Z"/>
                      <path xmlns="http://www.w3.org/2000/svg" class="cls-2" d="M505.81,134.92h24a0,0,0,0,1,0,0v1.36a3.18,3.18,0,0,1-3.18,3.18H509a3.18,3.18,0,0,1-3.18-3.18v-1.36A0,0,0,0,1,505.81,134.92Z"/>
                    </g>
                  </g>
                </g>
              </g>
            </svg>